SplineFontDB: 3.0
FontName: Tofeus
FullName: Tofeus
FamilyName: Tofeus
Weight: Regular
Copyright: Copyright 2011 Barry Schwartz
UComments: "scale 105%" 
Version: 0.1
ItalicAngle: 0
UnderlinePosition: -100
UnderlineWidth: 50
Ascent: 700
Descent: 300
LayerCount: 3
Layer: 0 0 "Back"  1
Layer: 1 0 "Fore"  0
Layer: 2 0 "backup"  0
NeedsXUIDChange: 1
XUID: [1021 658 797806517 5975031]
FSType: 0
OS2Version: 0
OS2_WeightWidthSlopeOnly: 0
OS2_UseTypoMetrics: 1
CreationTime: 1296876006
ModificationTime: 1297404371
OS2TypoAscent: 0
OS2TypoAOffset: 1
OS2TypoDescent: 0
OS2TypoDOffset: 1
OS2TypoLinegap: 90
OS2WinAscent: 0
OS2WinAOffset: 1
OS2WinDescent: 0
OS2WinDOffset: 1
HheadAscent: 0
HheadAOffset: 1
HheadDescent: 0
HheadDOffset: 1
OS2Vendor: 'PfEd'
MarkAttachClasses: 1
DEI: 91125
Encoding: UnicodeBmp
UnicodeInterp: none
NameList: Adobe Glyph List
DisplaySize: -48
AntiAlias: 1
FitToEm: 1
WinInfo: 8208 12 6
BeginPrivate: 9
BlueValues 23 [-17 0 400 425 695 700]
OtherBlues 11 [-287 -278]
BlueScale 8 0.039625
BlueShift 1 7
BlueFuzz 1 0
StdHW 4 [24]
StemSnapH 39 [20 24 28 32 36 40 47 56 63 79 100 221]
StdVW 4 [75]
StemSnapV 39 [26 50 54 58 67 75 79 85 91 95 100 204]
EndPrivate
BeginChars: 65541 116

StartChar: T
Encoding: 84 84 0
Width: 294
VWidth: 0
Flags: HW
HStem: -12 42<156.007 247.318> 362 44<144 268.998>
VStem: 68 71<44.4062 355>
LayerCount: 3
Fore
Refer: 40 116 N 1 0 0 1 0 0 2
Layer: 2
SplineSet
432 28 m 0xd0
 439 25 485 25 495 24 c 0
 508 23 519 23 519 9 c 0
 519 -2 512 -7 500 -7 c 0
 489 -7 408 0 365 0 c 0
 342 0 290 -1 262 -3 c 0
 250 -4 234 -5 226 -5 c 0
 214 -5 207 -2 207 11 c 0
 207 27 219 28 227 28 c 0
 237 28 248 27 259 27 c 0
 286 27 297 30 301 44 c 0
 309 75 310 196 310 284 c 2
 310 332 l 2
 310 397 310 468 309 496 c 0
 308 530 311 606 299 614 c 0
 294 617 289 618 282 618 c 0
 266 619 247 619 229 619 c 0xd0
 189 619 149 618 124 617 c 0
 116 617 107 613 95 603 c 2
 22 538 l 1
 16 540 12 541 10 546 c 1
 52 665 l 2
 53 668 56 670 60 670 c 0
 62 670 64 670 65 669 c 2
 85 658 l 2
 97 651 107 650 113 650 c 2
 359 650 l 2xb0
 437 650 536 649 625 649 c 0
 631 649 633 650 639 654 c 2
 661 667 l 2
 668 671 673 666 674 663 c 0
 683 623 703 555 708 540 c 1
 705 534 696 530 693 534 c 2
 637 597 l 2
 627 608 621 615 584 616 c 0
 548 617 491 619 466 619 c 2
 459 619 l 2
 444 619 435 619 423 615 c 0
 412 612 412 555 411 515 c 0
 410 443 410 372 410 313 c 2
 410 247 l 2
 410 181 410 106 414 61 c 0
 416 37 427 30 432 28 c 0xd0
210 -6 m 1
 209 -2 208 3 208 7 c 0
 208 13 209 19 211 25 c 1
 296 26 303 26 307 61 c 0
 311 105 312 176 312 222 c 2
 312 339 l 2
 312 409 312 482 309 591 c 0
 308 616 296 617 284 617 c 2
 139 617 l 2
 124 617 112 616 103 609 c 0
 76 588 50 562 25 539 c 1
 19 541 12 547 10 551 c 1
 29 601 37 615 52 667 c 0
 52 669 55 670 57 670 c 0
 60 670 64 668 66 667 c 2
 84 657 l 2
 96 651 107 650 113 650 c 2
 625 650 l 2xb0
 631 650 634 651 639 654 c 2
 661 667 l 2
 663 668 664 668 665 668 c 0
 670 668 673 664 674 662 c 0
 688 592 701 563 709 538 c 1
 704 533 699 532 694 531 c 1
 679 550 653 582 633 603 c 0
 621 616 595 617 574 617 c 2
 442 617 l 2
 420 617 414 615 413 595 c 0
 409 535 409 404 409 323 c 2
 409 184 l 2
 409 135 411 84 413 60 c 0
 416 25 432 28 516 25 c 1
 517 22 517 17 517 11 c 0
 517 5 516 0 514 -6 c 1
 484 -4 420 0 395 0 c 2
 335 0 l 2
 302 0 272 -2 210 -6 c 1
432 28 m 0
 439 25 485 25 495 24 c 0
 508 23 519 23 519 9 c 0
 519 -2 512 -7 500 -7 c 0
 489 -7 408 0 365 0 c 0
 342 0 290 -1 262 -3 c 0
 250 -4 234 -5 226 -5 c 0
 214 -5 207 -2 207 11 c 0
 207 27 219 28 227 28 c 0
 237 28 248 27 259 27 c 0
 286 27 297 30 301 44 c 0
 309 75 310 196 310 284 c 2
 310 332 l 2
 310 397 310 468 309 496 c 0
 308 530 311 606 299 614 c 0
 294 617 289 618 282 618 c 0
 266 619 247 619 229 619 c 0xd0
 189 619 149 618 124 617 c 0
 116 617 107 613 95 603 c 2
 22 538 l 1
 16 540 12 541 10 546 c 1
 52 665 l 2
 53 668 56 670 60 670 c 0
 62 670 64 670 65 669 c 2
 85 658 l 2
 97 651 107 650 113 650 c 2
 359 650 l 2xb0
 437 650 536 649 625 649 c 0
 631 649 633 650 639 654 c 2
 662 668 l 2
 663 669 665 669 666 669 c 0
 670 669 672 666 673 663 c 0
 682 623 702 555 707 540 c 1
 704 534 697 530 694 534 c 2
 638 597 l 2
 628 608 621 615 584 616 c 0
 548 617 491 619 466 619 c 2
 459 619 l 2xd0
 444 619 435 619 423 615 c 0
 412 612 412 555 411 515 c 0
 410 443 410 372 410 313 c 2
 410 247 l 2
 410 181 410 106 414 61 c 0
 416 37 427 30 432 28 c 0
EndSplineSet
EndChar

StartChar: s
Encoding: 115 115 1
Width: 324
VWidth: 3
Flags: W
HStem: -8 32<120.071 212.734> 382 34<123.394 219.086> 389 20G<266 272.5>
VStem: 29 23<116.36 144.833> 43 62<282.006 368.06> 236 59<42.6 139.5> 266 22<290.677 316.563>
LayerCount: 3
Fore
SplineSet
105 325 m 0xca
 105 240 295 244 295 109 c 0
 295 36 231 -8 164 -8 c 0
 129 -8 95 -2 80 -2 c 0
 66 -2 62 -6 49 -6 c 0
 44 -6 40 -4 40 2 c 0
 40 15 39 23 39 36 c 0
 39 63 29 127 29 134 c 0
 29 139 30 144 42 145 c 0
 48 146 51 143 52 140 c 0xd4
 85 64 119 24 167 24 c 0
 203 24 236 48 236 87 c 0
 236 196 43 186 43 308 c 0
 43 366 95 416 169 416 c 0xcc
 202 416 234 407 252 407 c 0
 257 407 263 409 269 409 c 0xac
 276 409 280 405 280 400 c 0
 280 354 288 302 288 291 c 0
 288 284 283 284 278 283 c 0
 275 282 267 281 266 285 c 0
 243 370 198 382 166 382 c 0
 127 382 105 352 105 325 c 0xca
EndSplineSet
Layer: 2
SplineSet
164 -8 m 4xcc
 129 -8 95 -2 80 -2 c 4
 66 -2 62 -6 49 -6 c 4
 44 -6 40 -4 40 2 c 4
 40 15 39 23 39 36 c 4xcc
 39 63 29 127 29 134 c 4
 29 139 30 144 42 145 c 4
 48 146 51 143 52 140 c 4xd0
 85 64 119 24 167 24 c 4
 209 24 236 49 236 90 c 4
 236 181 39 194 39 309 c 4
 39 366 96 419 165 419 c 4xcc
 198 419 230 409 248 409 c 4
 253 409 259 411 265 411 c 4
 272 411 276 407 276 402 c 4
 276 356 284 304 284 293 c 4
 284 286 279 286 274 285 c 4
 271 284 263 283 262 287 c 4xaa
 239 372 194 387 162 387 c 4
 119 387 99 361 99 328 c 4
 99 253 295 232 295 116 c 4
 295 39 238 -8 164 -8 c 4xcc
291 106 m 0xcc
 291 36 238 -13 164 -13 c 0
 129 -13 90 -3 75 -3 c 0
 61 -3 46 -9 40 -9 c 0
 35 -9 31 -6 31 1 c 0
 31 111 24 116 24 130 c 0
 24 138 24 142 37 142 c 0
 40 142 46 140 47 137 c 0xd4
 88 34 140 18 161 18 c 0
 202 18 228 49 228 84 c 0
 228 116 196 143 153 174 c 2
 128 192 l 2
 85 223 43 254 43 307 c 0
 43 372 93 418 170 418 c 0xcc
 210 418 238 406 256 406 c 0
 261 406 268 409 274 409 c 0
 281 409 286 406 286 401 c 0
 287 306 293 302 293 290 c 0
 293 283 288 281 283 280 c 0
 280 279 272 280 271 284 c 0xaa
 252 345 210 388 167 388 c 0
 128 388 112 360 112 337 c 0
 112 299 140 281 183 251 c 2
 208 233 l 2
 251 202 291 168 291 106 c 0xcc
EndSplineSet
EndChar

StartChar: v
Encoding: 118 118 3
Width: 184
VWidth: 0
Flags: W
HStem: 138 100<50.4375 133.562>
VStem: 42 100<146.438 229.562>
LayerCount: 3
Fore
SplineSet
42 188 m 0
 42 216 64 238 92 238 c 0
 120 238 142 216 142 188 c 0
 142 160 120 138 92 138 c 0
 64 138 42 160 42 188 c 0
EndSplineSet
Validated: 1
EndChar

StartChar: m
Encoding: 109 109 4
Width: 752
VWidth: 0
Flags: W
HStem: -4 24<22.0058 65.5536 163.281 216.996 282.013 331.047 420.958 470.999 541.001 590.968 684.073 724.98> 372 47<205.028 312.991 464.474 573.175>
VStem: 76 75<27.4428 335.687> 337 75<24.7844 346.866> 597 77<23.9305 346.567>
LayerCount: 3
Fore
SplineSet
674 233 m 2
 674 70 l 2
 674 27 691 23 714 20 c 0
 722 19 725 15 725 7 c 0
 725 -2 719 -4 714 -4 c 0
 704 -4 662 0 642 0 c 2
 621 0 l 2
 613 0 560 -4 550 -4 c 0
 543 -4 541 1 541 8 c 0
 541 16 541 19 553 20 c 0
 597 24 597 33 597 68 c 2
 597 238 l 2
 597 328 584 372 510 372 c 0
 487 372 424 358 416 324 c 0
 412 308 412 287 412 264 c 2
 412 90 l 2
 412 32 413 25 460 20 c 0
 470 19 471 17 471 8 c 0
 471 0 471 -4 462 -4 c 0
 458 -4 406 0 387 0 c 2
 366 0 l 2
 351 0 296 -4 290 -4 c 0
 284 -4 282 0 282 9 c 0
 282 15 285 20 291 20 c 0
 335 23 337 33 337 60 c 2
 337 257 l 2
 337 324 322 372 253 372 c 0
 184 372 159 333 156 318 c 0
 151 293 151 274 151 246 c 2
 151 67 l 2
 151 37 157 26 206 20 c 0
 218 19 217 15 217 8 c 0
 217 -1 212 -2 205 -2 c 0
 196 -2 157 0 129 0 c 2
 109 0 l 2
 86 0 38 -4 30 -4 c 0
 25 -4 22 0 22 8 c 0
 22 20 30 20 33 20 c 0
 75 25 73 42 74 64 c 0
 76 108 76 131 76 163 c 2
 76 250 l 2
 76 280 74 330 71 336 c 0
 62 351 49 357 29 362 c 0
 26 363 26 367 26 370 c 0
 26 374 26 380 29 381 c 0
 88 398 128 424 134 424 c 0
 136 424 144 419 144 412 c 2
 144 353 l 1
 171 377 215 419 302 419 c 0
 350 419 385 391 403 357 c 1
 450 394 493 419 553 419 c 0
 667 419 674 344 674 233 c 2
EndSplineSet
EndChar

StartChar: I
Encoding: 73 73 15
Width: 296
VWidth: 0
Flags: HW
HStem: -4 24<20.0078 76.2914 176.475 223.996> 401 20<157 164> 586 99<89.3365 169.325>
VStem: 80 99<595.336 675.325> 90 75<27.1791 339.556>
LayerCount: 3
Fore
Refer: 16 105 N 1 0 0 1 0 0 2
Layer: 2
SplineSet
99 90 m 2xb0
 99 423 l 2
 99 501 96 584 93 595 c 0
 89 612 86 615 38 620 c 0
 30.0430527289 620.828848674 17 620 17 636 c 0
 17 649 25 648 35 648 c 0xd0
 39 648 92 642 134 642 c 2
 153 642 l 2
 186 642 244 644 248 644 c 0
 258 644 266 642 266 634 c 0
 266 621 259 620 245 619 c 0
 221 618 199 613 196 595 c 0
 191 563 190 508 190 445 c 2
 190 148 l 2
 190 103 191 64 199 47 c 0
 203.965820312 36.4482421875 208 20 252 17 c 0
 260.043583082 16.4515738808 274 16 274 3 c 0
 274 -6 262 -6 252 -6 c 0
 248 -6 198 2 155 2 c 2
 136 2 l 2
 115 2 60 -6 46 -6 c 0
 38 -6 25 -5 25 5 c 0
 25 17 33 19 46 20 c 0
 74 22 86.0433931172 26.5976345137 96 49 c 0
 100 58 99 69 99 90 c 2xb0
190 313 m 2
 190 190 l 2
 190 142 190 93 194 61 c 0
 199 18 217 27 257 25 c 0
 270 24 274 22 274 8 c 0
 274 -1 268 -4 259 -4 c 0
 242 -4 204 0 156 0 c 2
 134 0 l 2
 101 0 51 -3 42 -3 c 0
 30 -3 26 0 26 13 c 0
 26 22 33 26 41 26 c 2
 75 26 l 2
 84 26 97 35 97 59 c 0
 98 114 99 132 99 185 c 2
 99 385 l 2
 99 463 99 554 96 581 c 0
 93 612 78 617 35 617 c 0
 22 617 16 620 16 634 c 0
 16 645 26 647 38 647 c 0
 49 647 91 643 134 643 c 2
 156 643 l 2
 189 643 240 646 249 646 c 0
 261 646 265 643 265 630 c 0
 265 621 258 617 250 617 c 0
 234 617 222 617 215 616 c 0
 208 615 197 607 194 583 c 0
 193 575 190 354 190 313 c 2
EndSplineSet
EndChar

StartChar: i
Encoding: 105 105 16
Width: 252
VWidth: 0
Flags: W
HStem: -4 24<20.0078 76.2914 176.475 223.996> 401 20G<157 164> 586 99<89.3365 169.325>
VStem: 80 99<595.336 675.325> 90 75<27.1791 339.556>
LayerCount: 3
Fore
SplineSet
20 9 m 0xe8
 20 15 26 20 30 20 c 0
 85 23 90 40 90 72 c 2
 90 247 l 2
 90 291 88 331 84 340 c 0
 78 356 61 367 42 372 c 0
 40 373 38 375 38 381 c 0
 38 385 39 390 42 391 c 0
 118 404 155 421 159 421 c 0
 169 421 170 415 170 411 c 0
 170 397 165 356 165 268 c 2
 165 83 l 2
 165 42 165 26 212 20 c 0
 224 19 224 14 224 8 c 0
 224 -2 218 -4 211 -4 c 0
 199 -4 162 0 129 0 c 2
 121 0 l 2
 94 0 41 -4 35 -4 c 0
 21 -4 20 -1 20 9 c 0xe8
80 635 m 4xf0
 80 661 103 685 129 685 c 4
 155 685 179 661 179 635 c 4
 179 609 155 586 129 586 c 4
 103 586 80 609 80 635 c 4xf0
EndSplineSet
EndChar

StartChar: H
Encoding: 72 72 19
Width: 490
VWidth: 0
Flags: HW
HStem: -4 24<16.0193 56.6343 151.311 200.998 272.057 321.774 413.141 458.879> 373 46<189.144 295.97> 680 20<127.5 132>
VStem: 67 73<25.5863 352.966 361 620.006> 332 76<24.6946 333.985>
LayerCount: 3
Fore
Refer: 31 104 N 1 0 0 1 0 0 2
Layer: 2
SplineSet
89 234 m 2xec
 91 454 l 2
 91 521 89 577 87 587 c 0
 83 612 80 623 30 628 c 0
 22 629 12 633 12 643 c 0
 12 652 20 654 27 654 c 0xdc
 40 654 82 649 132 649 c 2
 151 649 l 2
 188 649 278 657 286 657 c 0
 294 657 301 655 301 644 c 0
 301 634 280 633 266 632 c 0
 227 629 193 624 192 593 c 0
 189 492 188 430 188 358 c 0
 188 344 204 342 212 342 c 2
 548 342 l 2
 558 342 569 342 569 361 c 2
 569 403 l 2
 569 468 568 570 562 593 c 0
 557 610 550 627 484 629 c 0
 476 629 469 632 469 639 c 0
 469 652 479 653 485 653 c 0
 489 653 562 646 604 646 c 2
 623 646 l 2
 656 646 728 650 732 650 c 0
 742 650 746 646 746 640 c 0
 746 627 734 629 720 626 c 0
 696 621 674 622 668 597 c 0
 660 566 660 536 660 425 c 2
 659 101 l 2
 659 79 659 63 662 53 c 0
 666 37 672 22 719 20 c 0
 727 20 741 18 741 6 c 0
 741 -5 731 -6 722 -6 c 0
 713 -6 645 0 625 0 c 2
 606 0 l 2
 564 0 490 -7 486 -7 c 0
 476 -7 464 -6 464 7 c 0
 464 20 472 23 485 24 c 0
 532 28 542 23 559 48 c 0
 565 57 566 102 566 234 c 2
 566 296 l 2
 566 310 554 310 544 310 c 2
 205 310 l 2
 197 310 188 308 188 299 c 2
 188 148 l 2
 188 103 189 57 196 42 c 0
 201 31 232 25 282 23 c 0
 290 23 304 22 304 6 c 0
 304 -7 292 -8 282 -8 c 0
 278 -8 196 0 153 0 c 2
 134 0 l 2
 108 0 30 -6 26 -6 c 0
 16 -6 3 -6 3 7 c 0
 3 19 11 20 28 22 c 0
 73 27 74 33 81 60 c 0
 83 68 88 101 89 234 c 2xec
EndSplineSet
EndChar

StartChar: d
Encoding: 100 100 20
Width: 489
VWidth: 0
Flags: W
HStem: -9 42<187.939 294.692> 24 20<426.869 469.974> 393 26<193.306 292.703> 643 22<268.003 313.502> 675 20G<398.5 402.5>
VStem: 30 88<114.041 295.034> 333 75<52.2184 370.034 402 624.661>
LayerCount: 3
Fore
SplineSet
30 184 m 0xbe
 30 358 155 419 249 419 c 0
 287 419 334 402 334 402 c 1
 333 501 l 2
 332 596 333 618 327 625 c 0
 320 633 297 639 274 643 c 0
 272 643 268 645 268 654 c 0
 268 657 270 664 274 665 c 0
 342 674 397 695 400 695 c 0
 405 695 413 686 413 684 c 0
 413 671 408 628 408 239 c 0
 408 78 409 68 414 63 c 0
 421 56 409 54 467 44 c 0
 469 44 470 37 470 35 c 0
 470 31 469 24 467 24 c 0x7e
 420 16 353 -13 349 -13 c 0
 341 -13 338 -9 338 -5 c 2
 338 41 l 1
 338 41 288 -9 208 -9 c 0
 96 -9 30 88 30 184 c 0xbe
118 222 m 0
 118 114 168 33 257 33 c 0xbe
 300 33 333 54 333 68 c 2
 333 351 l 1
 333 351 301 393 234 393 c 0
 173 393 118 316 118 222 c 0
EndSplineSet
Layer: 2
SplineSet
30 184 m 4xbe
 30 358 155 419 249 419 c 4
 287 419 334 402 334 402 c 5
 333 501 l 6
 332 606 331 618 325 625 c 4
 318 633 295 639 272 643 c 4
 270 643 266 645 266 654 c 4
 266 657 268 665 272 665 c 4
 341 673 400 695 403 695 c 4
 408 695 416 686 416 684 c 4
 416 658 410 605 410 498 c 6
 410 112 l 6
 410 83 411 68 415 63 c 4
 421 56 410 54 468 44 c 4
 470 44 471 37 471 35 c 4
 471 31 470 24 468 24 c 4x7e
 421 16 353 -13 349 -13 c 4
 341 -13 338 -9 338 -5 c 6
 338 41 l 5
 338 41 288 -9 208 -9 c 4
 96 -9 30 88 30 184 c 4xbe
118 222 m 4
 118 114 168 33 257 33 c 4xbe
 300 33 333 54 333 68 c 6
 333 351 l 5
 333 351 301 393 234 393 c 4
 173 393 118 316 118 222 c 4
EndSplineSet
EndChar

StartChar: a
Encoding: 97 97 21
Width: 388
VWidth: 0
Flags: W
HStem: -9 48<115.911 190.922 273.5 352.393> 382 38<146.235 216.556>
VStem: 34 71<49.9612 136.721 296.852 353> 237 73<59.9746 197 217.626 362.756>
LayerCount: 3
Back
SplineSet
154 39 m 4
 184 39 234 63 234 83 c 6
 236 197 l 5
 167 171 105 147 105 100 c 4
 105 63 128 39 154 39 c 4
295 -8 m 4
 252 -8 241 34 235 48 c 5
 220 29 170 -9 123 -9 c 4
 73 -9 34 26 34 82 c 4
 34 157 120 180 237 226 c 5
 237 304 l 6
 237 349 214 382 168 382 c 4
 153 382 106 356 106 350 c 4
 106 337 119 329 119 312 c 4
 119 282 95 274 77 274 c 4
 53 274 40 294 40 316 c 4
 40 344 64 361 119 388 c 4
 154 405 182 420 199 420 c 4
 253 420 310 390 310 320 c 4
 310 274 307 173 307 99 c 4
 307 72 310 39 338 39 c 4
 350 39 365 55 366 55 c 4
 369 55 374 49 374 45 c 4
 374 29 342 -8 295 -8 c 4
EndSplineSet
Fore
SplineSet
154 39 m 0
 184 39 234 63 234 83 c 2
 236 197 l 1
 167 171 105 147 105 100 c 0
 105 63 128 39 154 39 c 0
295 -8 m 0
 252 -8 241 34 235 48 c 1
 220 29 170 -9 123 -9 c 0
 73 -9 34 26 34 82 c 0
 34 157 120 180 237 226 c 1
 237 304 l 2
 237 349 214 382 168 382 c 0
 153 382 106 356 106 350 c 0
 106 337 119 329 119 312 c 0
 119 282 95 274 77 274 c 0
 53 274 40 294 40 316 c 0
 40 344 64 361 119 388 c 0
 154 405 182 420 199 420 c 0
 253 420 310 390 310 320 c 0
 310 274 307 173 307 99 c 0
 307 72 310 39 338 39 c 0
 350 39 362 54 367 54 c 0
 370 54 374 49 374 45 c 0
 374 29 342 -8 295 -8 c 0
EndSplineSet
Layer: 2
SplineSet
-246 39 m 0
 -216 39 -166 63 -166 83 c 2
 -164 197 l 1
 -233 171 -295 147 -295 100 c 0
 -295 63 -272 39 -246 39 c 0
-100 -8 m 0
 -141 -8 -160 32 -164 49 c 1
 -179 30 -230 -9 -277 -9 c 0
 -327 -9 -366 26 -366 82 c 0
 -366 157 -280 180 -163 226 c 1
 -163 304 l 2
 -163 349 -186 382 -232 382 c 0
 -247 382 -294 356 -294 350 c 0
 -294 337 -281 329 -281 312 c 0
 -281 282 -305 274 -323 274 c 0
 -347 274 -360 294 -360 316 c 0
 -360 344 -336 361 -281 388 c 0
 -246 405 -218 420 -201 420 c 0
 -147 420 -90 390 -90 320 c 0
 -90 274 -93 173 -93 99 c 0
 -93 72 -90 39 -62 39 c 0
 -50 39 -41 53 -34 53 c 0
 -29 53 -26 47 -26 43 c 0
 -26 29 -54 -8 -100 -8 c 0
154 39 m 4
 184 39 234 63 234 83 c 6
 236 197 l 5
 167 171 105 147 105 100 c 4
 105 63 128 39 154 39 c 4
295 -8 m 4
 252 -8 241 34 235 48 c 5
 220 29 170 -9 123 -9 c 4
 73 -9 34 26 34 82 c 4
 34 157 120 180 237 226 c 5
 237 304 l 6
 237 349 214 382 168 382 c 4
 153 382 106 356 106 350 c 4
 106 337 119 329 119 312 c 4
 119 282 95 274 77 274 c 4
 53 274 40 294 40 316 c 4
 40 344 64 361 119 388 c 4
 154 405 182 420 199 420 c 4
 253 420 310 390 310 320 c 4
 310 274 307 173 307 99 c 4
 307 72 310 39 338 39 c 4
 350 39 365 55 366 55 c 4
 369 55 374 49 374 45 c 4
 374 29 342 -8 295 -8 c 4
EndSplineSet
EndChar

StartChar: b
Encoding: 98 98 22
Width: 476
VWidth: 0
Flags: W
HStem: -14 29<186.681 282.633> -6 21G<68.5 76> 385 36<172.913 275.824> 676 20G<130 133.5>
VStem: 68 72<48.1055 373.67 387 489.626> 351 87<97.3691 299.004>
LayerCount: 3
Fore
SplineSet
438 195 m 0x7c
 438 91 369 -14 242 -14 c 0xbc
 168 -14 122 5 113 5 c 0
 97 5 80 -6 72 -6 c 0
 65 -6 62 -3 62 6 c 0
 62 25 68 14 68 160 c 2
 68 255 l 2
 68 510 66 599 62 612 c 0
 58 625 50 625 20 632 c 0
 15 633 13 637 13 643 c 0
 13 649 16 653 20 654 c 0
 86 670 129 696 131 696 c 0
 136 696 145 693 145 688 c 0
 145 678 140 628 140 476 c 2
 140 387 l 1
 140 387 196 421 248 421 c 0
 363 421 438 323 438 195 c 0x7c
140 102 m 2
 140 42 203 15 235 15 c 0
 314 15 351 111 351 185 c 0
 351 318 285 385 223 385 c 0
 162 385 140 360 140 360 c 1
 140 102 l 2
EndSplineSet
EndChar

StartChar: H.NOTUSED
Encoding: 65536 -1 23
Width: 766
VWidth: 0
Flags: W
HStem: -7 26<4.17188 66.25 214.281 301.345 466.797 543.932 675.36 737.968> 308 32<188.004 565.871> 626 25<13.8173 70.3234 212.769 297.562 471.425 548.228 678.725 743.156>
VStem: 89 99<33.2927 308 340 612.131> 566 94<48.4924 308 340 615.292>
LayerCount: 3
Fore
SplineSet
4 11 m 0
 4 14 4 17 5 19 c 1
 74 26 74 33 81 60 c 0
 83 68 88 101 89 234 c 0
 89.7516049061 314.045922501 91 394 91 474 c 0
 91 529 89 573 87 582 c 0
 83 607 86 618 15 626 c 1
 11 631 13 647 16 651 c 1
 29 651 82 646 132 646 c 2
 151 646 l 2
 188 646 289 652 297 652 c 1
 298 647 300 632 295 628 c 1
 224 620 193 617 192 586 c 0
 189 485 188 423 188 351 c 0
 188 340 194 340 202 340 c 2
 548 340 l 2
 558 340 569 341 569 354 c 2
 569 401 l 2
 569 466 567 568 561 591 c 0
 556 609 559 622 472 629 c 1
 470 635 471 647 473 652 c 1
 508 648 590 646 604 646 c 2
 623 646 l 2
 653 646 716 650 744 651 c 1
 744 645 744 634 742 627 c 1
 684 622 669 614 667 595 c 0
 664 564 660 534 660 423 c 2
 660 86 l 2
 660 27 666 28 739 21 c 1
 740 10 740 4 736 -6 c 1
 727 -6 643 0 623 0 c 2
 596 0 l 2
 540 0 497 -5 468 -6 c 1
 465 1 466 14 468 23 c 1
 531 27 546 24 559 48 c 0
 564 58 566 100 566 232 c 2
 566 299 l 2
 566 308 554 308 544 308 c 2
 205 308 l 2
 197 308 188 308 188 302 c 2
 188 148 l 2
 188 103 189 57 196 42 c 0
 201 31 236 26 301 22 c 1
 303 13 302 0 300 -7 c 1
 280 -7 166 0 143 0 c 2
 124 0 l 2
 98 0 10 -7 6 -7 c 1
 5 -3 4 4 4 11 c 0
EndSplineSet
Layer: 2
SplineSet
89 234 m 6xec
 91 454 l 6
 91 521 89 577 87 587 c 4
 83 612 80 623 30 628 c 4
 22 629 12 633 12 643 c 4
 12 652 20 654 27 654 c 4xdc
 40 654 82 649 132 649 c 6
 151 649 l 6
 188 649 278 657 286 657 c 4
 294 657 301 655 301 644 c 4
 301 634 280 633 266 632 c 4
 227 629 193 624 192 593 c 4
 189 492 188 430 188 358 c 4
 188 344 204 342 212 342 c 6
 548 342 l 6
 558 342 569 342 569 361 c 6
 569 403 l 6
 569 468 568 570 562 593 c 4
 557 610 550 627 484 629 c 4
 476 629 469 632 469 639 c 4
 469 652 479 653 485 653 c 4
 489 653 562 646 604 646 c 6
 623 646 l 6
 656 646 728 650 732 650 c 4
 742 650 746 646 746 640 c 4
 746 627 734 629 720 626 c 4
 696 621 674 622 668 597 c 4
 660 566 660 536 660 425 c 6
 659 101 l 6
 659 79 659 63 662 53 c 4
 666 37 672 22 719 20 c 4
 727 20 741 18 741 6 c 4
 741 -5 731 -6 722 -6 c 4
 713 -6 645 0 625 0 c 6
 606 0 l 6
 564 0 490 -7 486 -7 c 4
 476 -7 464 -6 464 7 c 4
 464 20 472 23 485 24 c 4
 532 28 542 23 559 48 c 4
 565 57 566 102 566 234 c 6
 566 296 l 6
 566 310 554 310 544 310 c 6
 205 310 l 6
 197 310 188 308 188 299 c 6
 188 148 l 6
 188 103 189 57 196 42 c 4
 201 31 232 25 282 23 c 4
 290 23 304 22 304 6 c 4
 304 -7 292 -8 282 -8 c 4
 278 -8 196 0 153 0 c 6
 134 0 l 6
 108 0 30 -6 26 -6 c 4
 16 -6 3 -6 3 7 c 4
 3 19 11 20 28 22 c 4
 73 27 74 33 81 60 c 4
 83 68 88 101 89 234 c 6xec
EndSplineSet
EndChar

StartChar: I.NOTUSED
Encoding: 65537 -1 24
Width: 296
VWidth: 0
Flags: W
HStem: -6 24<28.223 80.7275 204.279 273> 623 26<18 87.9985 201.547 264.562>
VStem: 99 91<28.4757 617.386>
LayerCount: 3
Fore
SplineSet
17 633 m 0
 17 639 18 643 20 649 c 1
 24 649 95 646 134 646 c 2
 153 646 l 2
 187 646 240 648 264 649 c 1
 265 643 266 631 263 623 c 1
 204 621 202 616 198 600 c 0
 194 584 190 507 190 444 c 2
 190 108 l 2
 190 17 195 24 272 18 c 1
 273 14 273 10 273 5 c 0
 273 2 273 -2 272 -6 c 1
 268 -6 198 0 155 0 c 2
 136 0 l 2
 115 0 49 -4 29 -6 c 1
 27 0 28 14 29 20 c 1
 85 25 99 31 99 71 c 2
 99 490 l 2
 99 542 98 588 88 610 c 0
 83 621 73 622 18 623 c 1
 18 625 17 630 17 633 c 0
EndSplineSet
Layer: 2
SplineSet
99 90 m 2xb0
 99 423 l 2
 99 501 96 584 93 595 c 0
 89 612 86 615 38 620 c 0
 30.0430527289 620.828848674 17 620 17 636 c 0
 17 649 25 648 35 648 c 0xd0
 39 648 92 642 134 642 c 2
 153 642 l 2
 186 642 244 644 248 644 c 0
 258 644 266 642 266 634 c 0
 266 621 259 620 245 619 c 0
 221 618 199 613 196 595 c 0
 191 563 190 508 190 445 c 2
 190 148 l 2
 190 103 191 64 199 47 c 0
 203.965820312 36.4482421875 208 20 252 17 c 0
 260.043583082 16.4515738808 274 16 274 3 c 0
 274 -6 262 -6 252 -6 c 0
 248 -6 198 2 155 2 c 2
 136 2 l 2
 115 2 60 -6 46 -6 c 0
 38 -6 25 -5 25 5 c 0
 25 17 33 19 46 20 c 0
 74 22 86.0433931172 26.5976345137 96 49 c 0
 100 58 99 69 99 90 c 2xb0
190 313 m 2
 190 190 l 2
 190 142 190 93 194 61 c 0
 199 18 217 27 257 25 c 0
 270 24 274 22 274 8 c 0
 274 -1 268 -4 259 -4 c 0
 242 -4 204 0 156 0 c 2
 134 0 l 2
 101 0 51 -3 42 -3 c 0
 30 -3 26 0 26 13 c 0
 26 22 33 26 41 26 c 2
 75 26 l 2
 84 26 97 35 97 59 c 0
 98 114 99 132 99 185 c 2
 99 385 l 2
 99 463 99 554 96 581 c 0
 93 612 78 617 35 617 c 0
 22 617 16 620 16 634 c 0
 16 645 26 647 38 647 c 0
 49 647 91 643 134 643 c 2
 156 643 l 2
 189 643 240 646 249 646 c 0
 261 646 265 643 265 630 c 0
 265 621 258 617 250 617 c 0
 234 617 222 617 215 616 c 0
 208 615 197 607 194 583 c 0
 193 575 190 354 190 313 c 2
EndSplineSet
EndChar

StartChar: T.NOTUSED
Encoding: 65538 -1 25
Width: 718
VWidth: 0
Flags: W
HStem: -5 32<209.071 301.487 418.002 513.965> 619 31<93.7848 298.523 417.888 630.803>
VStem: 310 100<31.4407 609.486>
LayerCount: 3
Fore
SplineSet
10 546 m 1
 52 665 l 2
 53 668 56 670 60 670 c 0
 62 670 64 670 65 669 c 2
 85 658 l 2
 97 651 107 650 113 650 c 2
 625 650 l 2
 631 650 633 651 639 655 c 2
 661 668 l 2
 663 669 664 669 666 669 c 0
 670 669 673 666 674 664 c 0
 683 624 703 555 708 540 c 1
 708 536 700 532 697 532 c 0
 695 532 694 533 693 534 c 2
 634 601 l 2
 619.016813049 618.014805521 570 619 533 619 c 2
 444 619 l 2
 436 619 429 618 423 613 c 0
 411 602 412 553 411 513 c 0
 410 441 410 372 410 313 c 2
 410 151 l 2
 410 106 411 61 418 43 c 0
 424 28 436 30 494 27 c 0
 502 27 514 24 514 10 c 0
 514 -3 504 -5 494 -5 c 0
 490 -5 419 0 385 0 c 2
 332 0 l 2
 298 0 233 -5 229 -5 c 0
 219 -5 209 -4 209 9 c 0
 209 25 220 27 228 27 c 4
 277 28 297 27 302 44 c 0
 308 63 310 116 310 177 c 2
 310 332 l 2
 310 397 310 466 309 494 c 0
 308 528 311 600 299 610 c 0
 289 618 267 619 247 619 c 2
 204 619 l 2
 173 619 109 618 93 603 c 2
 22 538 l 1
 16 536 10 541 10 546 c 1
EndSplineSet
Layer: 2
SplineSet
432 28 m 4xe8
 439 25 485 25 495 24 c 4
 508 23 519 23 519 9 c 4
 519 -2 512 -7 500 -7 c 4
 489 -7 408 0 365 0 c 4
 342 0 290 -1 262 -3 c 4
 250 -4 234 -5 226 -5 c 4
 214 -5 207 -2 207 11 c 4
 207 27 219 28 227 28 c 4
 237 28 248 27 259 27 c 4
 286 27 297 30 301 44 c 4
 309 75 310 196 310 284 c 6
 310 332 l 6
 310 397 310 468 309 496 c 4
 308 530 311 606 299 614 c 4
 294 617 289 618 282 618 c 4
 266 619 247 619 229 619 c 4xe8
 189 619 149 618 124 617 c 4
 116 617 107 613 95 603 c 6
 22 538 l 5
 16 540 12 541 10 546 c 5
 52 665 l 6
 53 668 56 670 60 670 c 4xd8
 62 670 64 670 65 669 c 6
 85 658 l 6
 97 651 107 650 113 650 c 6xe8
 359 650 l 6xd8
 437 650 536 649 625 649 c 4
 631 649 633 650 639 654 c 6
 661 667 l 6
 668 671 673 666 674 663 c 4
 683 623 703 555 708 540 c 5
 705 534 696 530 693 534 c 6
 637 597 l 6
 627 608 621 615 584 616 c 4
 548 617 491 619 466 619 c 6
 459 619 l 6
 444 619 435 619 423 615 c 4
 412 612 412 555 411 515 c 4
 410 443 410 372 410 313 c 6
 410 247 l 6
 410 181 410 106 414 61 c 4
 416 37 427 30 432 28 c 4xe8
210 -6 m 5
 209 -2 208 3 208 7 c 4
 208 13 209 19 211 25 c 5
 296 26 303 26 307 61 c 4
 311 105 312 176 312 222 c 6
 312 339 l 6
 312 409 312 482 309 591 c 4
 308 616 296 617 284 617 c 6
 139 617 l 6
 124 617 112 616 103 609 c 4
 76 588 50 562 25 539 c 5
 19 541 12 547 10 551 c 5
 29 601 37 615 52 667 c 4
 52 669 55 670 57 670 c 4xd8
 60 670 64 668 66 667 c 6
 84 657 l 6
 96 651 107 650 113 650 c 6
 625 650 l 6
 631 650 634 651 639 654 c 6
 661 667 l 6
 663 668 664 668 665 668 c 4
 670 668 673 664 674 662 c 4
 688 592 701 563 709 538 c 5
 704 533 699 532 694 531 c 5
 679 550 653 582 633 603 c 4
 621 616 595 617 574 617 c 6
 442 617 l 6
 420 617 414 615 413 595 c 4
 409 535 409 404 409 323 c 6
 409 184 l 6
 409 135 411 84 413 60 c 4
 416 25 432 28 516 25 c 5
 517 22 517 17 517 11 c 4
 517 5 516 0 514 -6 c 5
 484 -4 420 0 395 0 c 6
 335 0 l 6
 302 0 272 -2 210 -6 c 5
432 28 m 4
 439 25 485 25 495 24 c 4
 508 23 519 23 519 9 c 4
 519 -2 512 -7 500 -7 c 4
 489 -7 408 0 365 0 c 4
 342 0 290 -1 262 -3 c 4
 250 -4 234 -5 226 -5 c 4
 214 -5 207 -2 207 11 c 4
 207 27 219 28 227 28 c 4
 237 28 248 27 259 27 c 4
 286 27 297 30 301 44 c 4
 309 75 310 196 310 284 c 6
 310 332 l 6
 310 397 310 468 309 496 c 4
 308 530 311 606 299 614 c 4
 294 617 289 618 282 618 c 4
 266 619 247 619 229 619 c 4xe8
 189 619 149 618 124 617 c 4
 116 617 107 613 95 603 c 6
 22 538 l 5
 16 540 12 541 10 546 c 5
 52 665 l 6
 53 668 56 670 60 670 c 4xd8
 62 670 64 670 65 669 c 6
 85 658 l 6
 97 651 107 650 113 650 c 6xe8
 359 650 l 6xd8
 437 650 536 649 625 649 c 4
 631 649 633 650 639 654 c 6
 662 668 l 6
 663 669 665 669 666 669 c 4
 670 669 672 666 673 663 c 4
 682 623 702 555 707 540 c 5
 704 534 697 530 694 534 c 6
 638 597 l 6
 628 608 621 615 584 616 c 4
 548 617 491 619 466 619 c 6
 459 619 l 6xe8
 444 619 435 619 423 615 c 4
 412 612 412 555 411 515 c 4
 410 443 410 372 410 313 c 6
 410 247 l 6
 410 181 410 106 414 61 c 4
 416 37 427 30 432 28 c 4
EndSplineSet
EndChar

StartChar: U.NOTUSED
Encoding: 65539 -1 26
Width: 742
VWidth: 0
Flags: W
HStem: -19 58<295.373 481.874> 621 27<481.446 568.86> 627 25<20.2625 77.9898 232 302.077 655.82 710>
VStem: 103 95<162.675 605.578> 601 26<216.558 582.895>
LayerCount: 3
Fore
SplineSet
20 627 m 1xb8
 20 634 l 2
 20 640 21 646 22 652 c 1
 47 650 109 646 141 646 c 2
 169 646 l 2
 210 646 288 652 301 652 c 1xb8
 303 644 303 636 301 628 c 1
 252 625 200 626 199 543 c 0
 198 497 198 452 198 407 c 2
 198 366 l 2
 198 182 220 39 385 39 c 0
 514 39 572 109 594 221 c 0
 601 255 601 301 601 348 c 2
 601 467 l 2
 601 495 601 545 590 579 c 8
 576 622 539 618 481 621 c 1
 481 634 480 639 482 648 c 1xd8
 514 647 532 646 580 646 c 2
 611 646 l 2
 628 646 684 649 710 651 c 1
 710 649 711 647 711 643 c 0
 711 639 710 629 710 627 c 1
 654 624 635 609 630 567 c 0
 627 539 627 485 627 408 c 0
 627 235 625 168 571 78 c 0
 532 13 456 -19 371 -19 c 0
 213 -19 112 54 104 277 c 0
 103 309 103 339 103 367 c 2
 103 493 l 2
 103 525 101 571 98 582 c 0
 89 620 74 619 20 627 c 1xb8
EndSplineSet
EndChar

StartChar: c
Encoding: 99 99 27
Width: 418
VWidth: 0
Flags: W
HStem: -16 54<182.288 314.716> 394 28<190.531 276.46>
VStem: 29 78<120.379 292.365> 292 83<307.027 386.078>
LayerCount: 3
Fore
SplineSet
29 194 m 0
 29 322 126 422 256 422 c 0
 293 422 375 404 375 336 c 0
 375 318 362 298 339 298 c 0
 310 298 301 321 292 348 c 0
 280 381 274 394 239 394 c 0
 169 394 107 322 107 212 c 0
 107 115 169 38 257 38 c 0
 331 38 366 83 370 83 c 0
 374 83 384 75 384 70 c 0
 384 54 322 -16 223 -16 c 0
 107 -16 29 72 29 194 c 0
EndSplineSet
Layer: 2
SplineSet
27 193 m 4
 27 321 126 422 256 422 c 4
 293 422 375 404 375 336 c 4
 375 318 362 298 339 298 c 4
 310 298 301 321 292 348 c 4
 280 381 274 395 239 395 c 4
 169 395 108 315 108 212 c 4
 108 115 169 39 257 39 c 4
 326 39 366 83 370 83 c 4
 374 83 384 75 384 70 c 4
 384 54 321 -17 222 -17 c 4
 106 -17 27 74 27 193 c 4
EndSplineSet
EndChar

StartChar: e
Encoding: 101 101 28
Width: 427
VWidth: 0
Flags: W
HStem: -17 56<181.287 311.642> 255 27<121 302.576> 393 28<179.146 270.178>
VStem: 28 84<113.991 254.466> 303 89<267 347.484>
LayerCount: 3
Fore
SplineSet
233 421 m 0
 320 421 392 356 392 272 c 0
 392 262 388 255 373 255 c 2
 117 255 l 1
 117 255 112 244 112 220 c 0
 112 127 149 39 258 39 c 0
 348 39 375 111 380 111 c 0
 384 111 397 105 397 100 c 0
 397 83 341 -17 223 -17 c 0
 73 -17 28 100 28 185 c 0
 28 312 114 421 233 421 c 0
121 282 m 1
 291 282 l 2
 303 282 303 294 303 308 c 0
 303 358 274 393 227 393 c 0
 164 393 130 336 121 282 c 1
EndSplineSet
EndChar

StartChar: f
Encoding: 102 102 29
Width: 315
VWidth: 0
Flags: W
HStem: -4 24<21.0142 76.0592 191.754 250.931> 374 40<179.093 293> 664 35<238.331 347>
VStem: 98 80<35.9764 372>
LayerCount: 3
Fore
SplineSet
21 9 m 0
 21 14 24 20 30 20 c 0
 46 21 72 25 79 35 c 0
 94 56 93 66 94 91 c 0
 96 163 98 213 98 282 c 0
 98 303 96 372 96 372 c 1
 50 372 l 2
 42 372 35 375 35 381 c 0
 35 394 72 400 86 414 c 0
 98 426 101 441 103 457 c 0
 123 608 194 699 328 699 c 0
 366 699 406 686 406 650 c 0
 406 631 391 612 361 612 c 0
 317 612 301 664 271 664 c 0
 204 664 178 562 178 470 c 0
 178 421 182 414 182 414 c 1
 282 414 l 2
 291 414 293 411 293 399 c 2
 293 390 l 2
 293 377 291 374 279 374 c 2
 178 374 l 1
 175 106 l 2
 175 85 176 66 181 51 c 0
 191 21 207 24 239 20 c 0
 249 19 251 14 251 6 c 0
 251 1 245 -4 239 -4 c 0
 225 -4 172 0 149 0 c 2
 113 0 l 2
 85 0 43 -4 37 -4 c 0
 23 -4 21 -1 21 9 c 0
EndSplineSet
EndChar

StartChar: g
Encoding: 103 103 30
Width: 482
VWidth: 0
Flags: W
HStem: -287 57<125.887 294.913> -62 76<119.769 360.442> 89 27<167.638 254.231> 393 25<175.71 253.363 357.54 412.5>
VStem: 33 58<-198.18 -130.458> 50 74<162.994 327.735> 54 53<-7.5 59.7631> 305 73<168.437 346.526> 381 48<-176.5 -82.9278>
LayerCount: 3
Fore
SplineSet
91 -147 m 0xf980
 91 -205 147 -230 224 -230 c 0
 330 -230 381 -184 381 -128 c 0
 381 -63 309 -62 235 -62 c 0
 202 -62 174 -63 145 -64 c 1
 102 -89 91 -129 91 -147 c 0xf980
378 250 m 0
 378 133 275 89 205 89 c 0
 167 89 152 94 152 94 c 1
 130 84 107 64 107 42 c 0xf380
 107 28 116 12 152 12 c 0
 175 12 211 14 241 14 c 0
 336 14 429 -2 429 -101 c 0
 429 -192 340 -287 167 -287 c 0
 104 -287 33 -263 33 -191 c 0xf980
 33 -151 76 -90 119 -62 c 1
 83 -60 54 -20 54 5 c 0xf380
 54 55 96 80 130 102 c 1
 74 137 50 193 50 245 c 0xf580
 50 338 125 418 217 418 c 0
 264 418 283 414 319 389 c 1
 352 404 379 416 401 416 c 0
 424 416 461 395 461 376 c 0
 461 362 444 348 432 348 c 0
 399 348 379 387 365 387 c 0
 354 387 344 381 336 376 c 1
 375 334 378 279 378 250 c 0
214 116 m 0
 266 116 305 169 305 260 c 0
 305 337 263 393 218 393 c 0
 148 393 124 315 124 248 c 0xf580
 124 168 152 116 214 116 c 0
EndSplineSet
Layer: 2
SplineSet
91 -145 m 4xe4c0
 91 -203 147 -230 224 -230 c 4
 330 -230 385 -182 385 -126 c 4
 385 -61 315 -60 241 -60 c 4
 208 -60 174 -61 145 -62 c 5
 102 -87 91 -127 91 -145 c 4xe4c0
33 -189 m 4
 33 -149 76 -88 119 -60 c 5
 79 -55 54 -20 54 5 c 4xf1c0
 54 55 91 84 126 113 c 5
 74 149 48 198 48 250 c 4
 48 343 135 419 217 419 c 4xeac0
 247 419 284 416 320 391 c 5
 353 406 377 422 411 422 c 4
 434 422 462 406 462 378 c 4
 462 365 455 350 438 350 c 4
 406 350 388 388 364 388 c 4
 357 388 345 383 337 378 c 5
 376 336 380 284 380 255 c 4
 380 142 273 96 214 96 c 4
 169 96 148 103 148 103 c 5
 130 94 107 64 107 42 c 4xf1c0
 107 28 116 15 152 15 c 4
 175 15 217 17 247 17 c 4
 342 17 433 0 433 -99 c 4
 433 -190 340 -291 167 -291 c 4
 104 -291 33 -261 33 -189 c 4
214 122 m 4
 266 122 305 174 305 265 c 4
 305 342 263 395 218 395 c 4
 148 395 124 320 124 253 c 4xeac0
 124 173 152 122 214 122 c 4
91 -145 m 0xe4c0
 91 -203 147 -228 224 -228 c 0
 296 -228 383 -202 383 -126 c 0
 383 -63 320 -61 230 -61 c 2
 144 -61 l 1
 101 -86 91 -127 91 -145 c 0xe4c0
33 -189 m 0
 33 -139 76 -86 119 -58 c 1
 78 -53 54 -15 54 10 c 0xf1c0
 54 67 89 82 125 112 c 1
 73 148 48 198 48 250 c 0
 48 343 135 421 217 421 c 0xeac0
 247 421 284 416 320 391 c 1
 335 397 377 426 411 426 c 0
 434 426 462 410 462 382 c 0
 462 369 455 354 438 354 c 0
 406 354 388 386 364 386 c 0
 357 386 345 383 337 378 c 1
 373 340 381 280 381 253 c 0
 381 141 273 92 214 92 c 0
 171 92 148 103 148 103 c 1
 128 93 113 83 113 54 c 0xf1c0
 113 24 129 18 152 18 c 2
 259 18 l 2
 340 18 433 9 433 -99 c 0
 433 -182 340 -291 167 -291 c 0
 104 -291 33 -261 33 -189 c 0
218 118 m 0
 263 118 307 174 307 265 c 0
 307 342 261 395 216 395 c 0
 146 395 126 320 126 253 c 0xeac0
 126 173 171 118 218 118 c 0
EndSplineSet
EndChar

StartChar: h
Encoding: 104 104 31
Width: 476
VWidth: 0
Flags: W
HStem: -4 24<16.0193 56.6343 151.311 200.998 272.057 321.774 413.141 458.879> 373 46<189.144 295.97> 680 20G<127.5 132>
VStem: 67 73<25.5863 352.966 361 620.006> 332 76<24.6946 333.985>
LayerCount: 3
Fore
SplineSet
408 43 m 0
 409 26 433 22 452 20 c 0
 457 19 459 11 459 6 c 0
 459 1 455 -4 448 -4 c 0
 432 -4 401 0 378 0 c 2
 353 0 l 2
 325 0 287 -4 281 -4 c 0
 277 -4 272 -2 272 7 c 0
 272 12 275 20 279 20 c 0
 303 22 326 23 328 47 c 0
 329 67 332 78 332 111 c 2
 332 205 l 2
 332 311 320 373 222 373 c 0
 198 373 156 356 148 339 c 0
 140 321 140 303 140 271 c 2
 140 183 l 2
 140 145 143 77 147 41 c 0
 149 24 174 22 193 20 c 0
 198 19 201 13 201 8 c 0
 201 3 200 -4 193 -4 c 0
 177 -4 137 0 114 0 c 2
 90 0 l 2
 62 0 31 -4 25 -4 c 0
 21 -4 16 -2 16 7 c 0
 16 12 17 20 21 20 c 0
 41 22 60 23 62 47 c 0
 65 88 67 112 67 210 c 2
 68 436 l 2
 68 566 66 600 58 621 c 0
 53 633 44 634 20 644 c 0
 17 645 16 650 16 653 c 0
 16 657 18 662 20 663 c 0
 83 681 125 700 130 700 c 0
 134 700 142 695 142 690 c 0
 142 677 140 652 139 551 c 2
 138 361 l 1
 163 388 216 419 277 419 c 0
 326 419 400 378 402 284 c 0
 405 128 404 107 408 43 c 0
EndSplineSet
Layer: 2
SplineSet
14 622 m 0
 14 626 15 629 17 630 c 0
 54 640 84 651 119 667 c 1
 127 666 130 661 133 657 c 1
 132 644 129 575 129 501 c 0
 129 458 132 388 132 354 c 1
 151 366 208 398 270 398 c 0
 337 398 380 372 380 282 c 0x7c
 380 256 387 156 387 128 c 0
 387 109 389 88 392 66 c 8
 394 50 398 39 410 29 c 0
 420 20 440 22 440 12 c 0
 440 4 433 2 420 2 c 0x7a
 406 2 377 4 361 4 c 0
 322 4 314 -4 293 -4 c 0
 279 -4 277 0 277 6 c 0
 277 14 292 16 303 21 c 0
 319 28 320 40 320 54 c 18
 320 73 l 2xba
 320 117 319 191 317 224 c 0xbc
 313 309 304 356 209 356 c 0
 186 356 157 345 146 331 c 0
 135 316 133 290 133 260 c 2
 133 224 l 10
 133 151 134 80 142 36 c 0
 146 12 191 24 191 9 c 0
 191 4 186 -2 179 -2 c 0
 154 -2 126 2 104 2 c 0
 76 2 43 -7 36 -7 c 0
 26 -7 21 -6 21 3 c 0
 21 22 61 9 63 40 c 0
 66 83 67 119 67 153 c 0
 67 226 68 296 68 365 c 0
 68 434 66 505 60 574 c 0
 59 584 57 596 30 609 c 2
 17 615 l 2
 14 616 14 619 14 622 c 0
EndSplineSet
EndChar

StartChar: j
Encoding: 106 106 32
Width: 266
VWidth: 0
Flags: W
HStem: -281 21G<34 42> 405 20G<169.5 175.5> 581 99<79.0575 159.604>
VStem: 70 99<590.058 670.604> 108 75<-136.5 349.306>
LayerCount: 3
Fore
SplineSet
70 630 m 0xf0
 70 657 92 680 119 680 c 0
 146 680 169 657 169 630 c 0
 169 603 146 581 119 581 c 0
 92 581 70 603 70 630 c 0xf0
98 -147 m 0
 107 -106 108 -112 108 -15 c 2
 108 244 l 2
 108 310 107 325 102 335 c 0
 95 349 83 352 46 359 c 0
 43 360 41 366 41 369 c 0
 41 373 43 377 46 378 c 0
 138 403 166 425 173 425 c 0
 178 425 183 418 183 413 c 2
 183 0 l 2xe8
 183 -80 177 -107 153 -153 c 0
 135 -187 46 -281 38 -281 c 0
 30 -281 19 -276 19 -264 c 0
 19 -262 90 -182 98 -147 c 0
EndSplineSet
Layer: 2
SplineSet
28 -268 m 5
 75 -228 90 -214 102 -164 c 4
 114 -112 116 -38 116 24 c 6
 116 258 l 5
 115 291 114 328 93 332 c 6
 51 340 l 5
 46 343 47 354 52 356 c 4
 95 373 136 392 169 408 c 5
 180 408 183 401 183 396 c 4
 183 240 185 128 185 -30 c 4
 185 -60 179 -118 156 -162 c 4
 124 -223 109 -242 50 -287 c 5xa0
 50 -287 49 -288 47 -288 c 4
 38 -288 28 -278 28 -268 c 5
70 609 m 4xc0
 70 635 91 656 117 656 c 4
 143 656 164 635 164 609 c 4
 164 583 143 562 117 562 c 4
 91 562 70 583 70 609 c 4xc0
EndSplineSet
EndChar

StartChar: k
Encoding: 107 107 33
Width: 488
VWidth: 0
Flags: WO
HStem: -4 24<20.0456 71.75 164.848 215.875 262.127 297.183 411.731 463.986> 182 22<156 200.998> 387 20<250.001 290.603 397.774 437.942> 680 20G<145 149>
VStem: 81 75<48.166 182 204 618.965>
LayerCount: 3
Fore
SplineSet
26 651 m 0
 26 656 27 662 31 663 c 0
 95 675 142 700 148 700 c 0
 150 700 160 695 160 688 c 0
 160 671 156 560 156 482 c 2
 156 204 l 1
 198 204 198 204 208 216 c 0
 243 257 302 345 302 358 c 0
 302 378 285 381 256 387 c 0
 252 388 250 394 250 397 c 0
 250 401 251 407 257 407 c 0
 265 407 311 404 338 404 c 2
 350 404 l 2
 387 404 419 407 429 407 c 0
 436 407 438 404 438 398 c 0
 438 392 433 389 426 387 c 0
 369 371 351 351 330 326 c 0
 314 306 255 230 255 224 c 0
 255 216 368 77 400 41 c 0
 409 31 427 22 453 20 c 0
 460 19 464 19 464 7 c 0
 464 0 463 -4 453 -4 c 0
 446 -4 412 0 369 0 c 2
 346 0 l 2
 322 0 278 -4 271 -4 c 0
 264 -4 262 1 262 6 c 0
 262 11 264 19 271 20 c 0
 292 23 299 31 299 38 c 0
 299 53 226 143 201 172 c 0
 194 181 190 182 156 182 c 1
 156 60 l 2
 156 36 164 23 198 20 c 0
 205 19 216 19 216 6 c 0
 216 4 215 -4 208 -4 c 0
 196 -4 162 0 132 0 c 2
 103 0 l 2
 67 0 41 -4 28 -4 c 0
 22 -4 20 1 20 7 c 0
 20 17 27 20 36 20 c 0
 75 22 78 40 79 47 c 0
 81 72 81 89 81 101 c 2
 81 414 l 2
 81 572 81 598 75 620 c 0
 73 627 55 637 31 642 c 0
 28 643 26 646 26 651 c 0
EndSplineSet
Layer: 2
SplineSet
23 651 m 4
 23 656 24 662 28 663 c 4
 92 675 144 700 150 700 c 4
 152 700 162 695 162 688 c 4
 162 671 158 562 158 435 c 6
 158 204 l 5
 200 204 198 204 208 216 c 4
 243 257 302 345 302 358 c 4
 302 378 285 381 256 387 c 4
 252 388 250 394 250 397 c 4
 250 401 251 407 257 407 c 4
 265 407 311 404 338 404 c 6
 350 404 l 6
 387 404 419 407 429 407 c 4
 436 407 438 404 438 398 c 4
 438 392 433 389 426 387 c 4
 369 371 351 351 330 326 c 4
 314 306 255 230 255 224 c 4
 255 216 368 77 400 41 c 4
 409 31 427 22 453 20 c 4
 460 19 464 19 464 7 c 4
 464 0 463 -4 453 -4 c 4
 446 -4 412 0 369 0 c 6
 346 0 l 6
 322 0 278 -4 271 -4 c 4
 264 -4 262 1 262 6 c 4
 262 11 264 19 271 20 c 4
 292 23 299 31 299 38 c 4
 299 53 226 143 201 172 c 4
 194 181 192 182 158 182 c 5
 158 60 l 6
 158 36 164 23 198 20 c 4
 205 19 216 19 216 6 c 4
 216 4 215 -4 208 -4 c 4
 196 -4 164 0 134 0 c 6
 103 0 l 6
 67 0 40 -4 27 -4 c 4
 21 -4 19 1 19 7 c 4
 19 17 26 20 35 20 c 4
 74 22 78 40 78 47 c 4
 79 70 80 89 80 101 c 6
 80 414 l 6
 80 572 78 598 72 620 c 4
 70 627 52 637 28 642 c 4
 25 643 23 646 23 651 c 4
EndSplineSet
EndChar

StartChar: l
Encoding: 108 108 34
Width: 278
VWidth: 0
Flags: W
HStem: -4 24<30.0262 83.9609 187.672 238.962> 675 20G<165 169.5>
VStem: 99 75<27.8772 635.074>
LayerCount: 3
Fore
SplineSet
30 7 m 0
 30 20 36 20 41 20 c 0
 97 25 99 36 99 116 c 2
 99 294 l 2
 99 398 98 508 97 607 c 0
 97 630 74 640 42 646 c 0
 40 647 39 651 39 654 c 0
 39 657 40 663 42 663 c 0
 99 670 163 695 167 695 c 4
 172 695 177 690 177 684 c 0
 177 675 174 647 174 508 c 2
 174 110 l 2
 174 34 174 28 230 20 c 0
 237 19 239 12 239 7 c 0
 239 5 238 -4 231 -4 c 0
 219 -4 174 0 145 0 c 2
 122 0 l 2
 86 0 66 -4 40 -4 c 0
 34 -4 30 1 30 7 c 0
EndSplineSet
EndChar

StartChar: n
Encoding: 110 110 35
Width: 494
VWidth: 0
Flags: W
HStem: -4 24<24.0058 67.5536 162.687 216.996 282.013 330.523 421.089 465.999> 372 47<204.755 311.585>
VStem: 78 73<27.0321 335.694> 336 77<23.2802 347.031>
LayerCount: 3
Fore
SplineSet
413 235 m 2
 413 90 l 2
 413 32 416 23 455 20 c 0
 465 19 466 17 466 8 c 0
 466 0 466 -4 457 -4 c 0
 453 -4 407 0 388 0 c 2
 366 0 l 2
 351 0 296 -4 290 -4 c 0
 284 -4 282 0 282 9 c 0
 282 15 285 20 291 20 c 0
 335 23 336 33 336 60 c 2
 336 257 l 2
 336 324 322 372 253 372 c 0
 184 372 159 333 156 318 c 0
 151 293 151 274 151 246 c 2
 151 67 l 2
 151 37 156 26 205 20 c 0
 217 19 217 15 217 8 c 0
 217 -1 212 -2 205 -2 c 0
 196 -2 157 0 129 0 c 2
 111 0 l 2
 88 0 40 -4 32 -4 c 0
 27 -4 24 0 24 8 c 0
 24 20 32 20 35 20 c 0
 77 25 75 42 76 64 c 0
 78 108 78 131 78 163 c 2
 78 260 l 2
 78 290 76 330 73 336 c 0
 64 351 51 357 31 362 c 0
 28 363 28 367 28 370 c 0
 28 374 28 380 31 381 c 0
 90 398 128 424 134 424 c 0
 136 424 144 419 144 412 c 2
 144 353 l 1
 171 377 214 419 301 419 c 0
 406 419 413 316 413 235 c 2
EndSplineSet
EndChar

StartChar: o
Encoding: 111 111 36
Width: 474
VWidth: 0
Flags: W
HStem: -13 30<180.881 286.026> 393 29<181.915 285.333>
VStem: 26 85<97.5242 302.404> 353 87<102.677 313.697>
LayerCount: 3
Fore
SplineSet
242 422 m 0
 364 422 440 337 440 204 c 0
 440 79 353 -13 228 -13 c 0
 98 -13 26 76 26 207 c 0
 26 343 133 422 242 422 c 0
233 393 m 0
 151 393 111 303 111 198 c 0
 111 107 145 17 233 17 c 0
 327 17 353 115 353 206 c 0
 353 300 319 393 233 393 c 0
EndSplineSet
EndChar

StartChar: p
Encoding: 112 112 37
Width: 488
VWidth: 0
Flags: W
HStem: -282 23<17.02 65.5926 175.852 235.961> -7 27<200.224 308.091> 378 41<207.775 312.622>
VStem: 82 75<-249.257 7 51.75 324.988> 374 85<103.203 307.634>
LayerCount: 3
Fore
SplineSet
249 378 m 0
 192 378 157 340 157 340 c 1
 157 118 l 2
 157 72 181 20 256 20 c 0
 342 20 374 104 374 195 c 0
 374 286 340 378 249 378 c 0
157 7 m 1
 157 -28 l 2
 157 -90 157 -198 158 -205 c 0
 162 -238 159 -253 225 -259 c 0
 230 -259 236 -259 236 -269 c 0
 236 -281 232 -282 226 -282 c 0
 211 -282 163 -278 140 -278 c 2
 104 -278 l 2
 78 -278 41 -282 28 -282 c 0
 20 -282 17 -281 17 -269 c 0
 17 -261 20 -260 28 -259 c 0
 77 -253 75 -240 81 -209 c 0
 82 -202 82 -161 82 -116 c 2
 82 84 l 2
 82 212 80 331 77 338 c 0
 68 356 66 353 38 364 c 0
 31 367 31 369 31 376 c 0
 31 384 32 386 38 387 c 0
 111 401 139 423 145 423 c 0
 148 423 153 416 153 411 c 2
 153 363 l 1
 153 363 216 419 282 419 c 0
 395 419 459 314 459 207 c 0
 459 95 393 -7 254 -7 c 0
 198 -7 157 7 157 7 c 1
EndSplineSet
EndChar

StartChar: q
Encoding: 113 113 38
Width: 470
VWidth: 0
Flags: W
HStem: -282 23<246.08 315.586 425.35 477.997> -14 34<193.141 310.383> 390 26<184.29 287.017>
VStem: 26 88<98.4467 301.045> 334 76<-249.125 14 29.0278 361.329>
LayerCount: 3
Fore
SplineSet
266 20 m 0
 309 20 334 41 334 41 c 1
 334 327 l 2
 334 351 289 390 231 390 c 0
 167 390 114 328 114 214 c 0
 114 128 139 20 266 20 c 0
417 408 m 0
 417 382 410 358 410 232 c 2
 410 -74 l 2
 410 -158 410 -140 413 -210 c 0
 415 -253 431 -255 464 -259 c 0
 477 -261 478 -261 478 -270 c 0
 478 -281 475 -282 466 -282 c 0
 454 -282 422 -278 394 -278 c 2
 355 -278 l 2
 325 -278 267 -282 257 -282 c 0
 247 -282 246 -279 246 -273 c 0
 246 -262 249 -260 256 -259 c 0
 322 -253 329 -253 332 -191 c 0
 334 -158 334 -159 334 -102 c 2
 334 14 l 1
 334 14 291 -14 219 -14 c 0
 79 -14 26 99 26 203 c 0
 26 322 108 416 237 416 c 0
 300 416 339 400 364 400 c 0
 377 400 392 420 406 420 c 0
 412 420 417 416 417 408 c 0
EndSplineSet
EndChar

StartChar: r
Encoding: 114 114 39
Width: 360
VWidth: 0
Flags: W
HStem: -4 23<27.056 78.6105 189.215 255.994> 357 63<219.5 304.35>
VStem: 93 74<30.7262 333.737>
LayerCount: 3
Fore
SplineSet
153 420 m 0
 156 420 163 418 163 413 c 2
 163 345 l 1
 196 381 250 420 280 420 c 0
 312 420 343 389 343 375 c 0
 343 350 311 322 298 322 c 0
 269 322 247 357 224 357 c 0
 215 357 172 329 170 298 c 0
 168 273 167 256 167 244 c 2
 167 135 l 2
 167 110 168 90 169 75 c 0
 174 22 199 23 244 19 c 0
 254 18 256 14 256 8 c 0
 256 -3 251 -4 244 -4 c 0
 234 -4 179 0 144 0 c 2
 116 0 l 2
 80 0 47 -4 37 -4 c 0
 31 -4 27 -3 27 6 c 0
 27 12 29 18 37 19 c 0
 89 23 90 36 92 86 c 0
 93 100 93 115 93 130 c 2
 93 214 l 2
 93 264 93 317 90 325 c 0
 86 336 88 342 49 353 c 0
 45 354 42 355 42 364 c 0
 42 370 43 373 50 375 c 0
 115 394 148 420 153 420 c 0
EndSplineSet
EndChar

StartChar: t
Encoding: 116 116 40
Width: 295
VWidth: 6
Flags: W
HStem: -12 42<156.007 247.318> 362 44<144 268.998>
VStem: 68 71<44.4062 355>
LayerCount: 3
Fore
SplineSet
261 40 m 0
 265 40 268 29 268 24 c 0
 268 19 220 -12 171 -12 c 0
 71 -12 68 54 68 122 c 0
 68 255 71 313 71 355 c 1
 33 355 l 2
 25 355 23 355 23 365 c 0
 23 368 25 372 29 376 c 0
 71 414 87 432 120 467 c 0
 126 474 132 481 137 481 c 0
 141 481 144 475 144 458 c 2
 144 406 l 1
 254 406 l 2
 269 406 269 400 269 384 c 0
 269 366 267 362 252 362 c 2
 141 362 l 1
 141 362 139 187 139 162 c 2
 139 129 l 2
 139 72 144 30 208 30 c 0
 247 30 256 40 261 40 c 0
EndSplineSet
EndChar

StartChar: u
Encoding: 117 117 41
Width: 485
VWidth: -2
Flags: W
HStem: -12 43<189.716 292.338> 12 21<423.394 467.997> 377 23<16.0074 66.8439 246.019 316.706> 387 20G<136 144.5 389 400.5>
VStem: 81 74<68.1731 369.898> 339 72<51.5583 365.02>
LayerCount: 3
Fore
SplineSet
155 336 m 2x1c
 155 155 l 2
 155 62 196 31 250 31 c 0
 295 31 336 59 337 72 c 0
 339 92 339 99 339 124 c 2
 339 206 l 2
 339 242 338 326 336 336 c 0
 331 360 329 371 253 377 c 0
 248 377 246 385 246 389 c 0
 246 394 249 400 252 400 c 0xac
 354 400 382 407 396 407 c 0
 405 407 413 402 413 388 c 0
 413 386 411 340 411 336 c 2
 411 91 l 2
 411 46 415 39 462 33 c 0
 466 32 468 30 468 23 c 0
 468 15 467 13 461 12 c 0x5c
 377 0 358 -12 349 -12 c 0
 343 -12 339 -9 339 -2 c 2
 339 39 l 1
 299 6 247 -12 220 -12 c 0
 84 -12 81 88 81 184 c 2
 81 229 l 2
 81 275 81 334 78 343 c 0
 74 358 76 373 23 377 c 0
 18 377 16 384 16 388 c 0
 16 393 17 400 27 400 c 0xac
 85 400 132 407 140 407 c 0
 149 407 157 404 157 386 c 0
 157 384 155 340 155 336 c 2x1c
EndSplineSet
Layer: 2
SplineSet
155 339 m 6xb8
 155 155 l 6
 155 62 196 31 250 31 c 4xb8
 295 31 336 59 337 72 c 4
 339 92 339 99 339 124 c 6
 339 209 l 6
 339 245 338 329 336 339 c 4
 331 363 329 374 253 380 c 4
 248 380 246 388 246 392 c 4
 246 397 249 403 252 403 c 4
 354 403 382 405 396 405 c 4
 405 405 413 403 413 389 c 4
 413 387 411 343 411 339 c 6
 411 91 l 6
 411 46 415 39 462 33 c 4
 466 32 468 30 468 23 c 4
 468 15 467 13 461 12 c 4x78
 377 0 358 -12 349 -12 c 4
 343 -12 339 -9 339 -2 c 6
 339 39 l 5
 299 6 247 -12 220 -12 c 4
 84 -12 81 88 81 184 c 6
 81 232 l 6
 81 278 81 337 78 346 c 4
 74 361 76 376 23 380 c 4
 18 380 16 387 16 391 c 4
 16 396 17 403 27 403 c 4
 90 403 132 405 140 405 c 4
 149 405 157 405 157 387 c 4
 157 385 155 343 155 339 c 6xb8
EndSplineSet
EndChar

StartChar: w
Encoding: 119 119 42
Width: 184
VWidth: 0
Flags: W
HStem: 138 100<50.4375 133.562>
VStem: 42 100<146.438 229.562>
LayerCount: 3
Fore
SplineSet
42 188 m 4
 42 216 64 238 92 238 c 4
 120 238 142 216 142 188 c 4
 142 160 120 138 92 138 c 4
 64 138 42 160 42 188 c 4
EndSplineSet
Validated: 1
EndChar

StartChar: x
Encoding: 120 120 43
Width: 184
VWidth: 0
Flags: W
HStem: 138 100<50.4375 133.562>
VStem: 42 100<146.438 229.562>
LayerCount: 3
Fore
SplineSet
42 188 m 4
 42 216 64 238 92 238 c 4
 120 238 142 216 142 188 c 4
 142 160 120 138 92 138 c 4
 64 138 42 160 42 188 c 4
EndSplineSet
Validated: 1
EndChar

StartChar: y
Encoding: 121 121 44
Width: 184
VWidth: 0
Flags: W
HStem: 138 100<50.4375 133.562>
VStem: 42 100<146.438 229.562>
LayerCount: 3
Fore
SplineSet
42 188 m 4
 42 216 64 238 92 238 c 4
 120 238 142 216 142 188 c 4
 142 160 120 138 92 138 c 4
 64 138 42 160 42 188 c 4
EndSplineSet
Validated: 1
EndChar

StartChar: z
Encoding: 122 122 45
Width: 184
VWidth: 0
Flags: W
HStem: 138 100<50.4375 133.562>
VStem: 42 100<146.438 229.562>
LayerCount: 3
Fore
SplineSet
42 188 m 4
 42 216 64 238 92 238 c 4
 120 238 142 216 142 188 c 4
 142 160 120 138 92 138 c 4
 64 138 42 160 42 188 c 4
EndSplineSet
Validated: 1
EndChar

StartChar: zero
Encoding: 48 48 57
Width: 184
VWidth: 0
Flags: W
HStem: 138 100<50.4375 133.562>
VStem: 42 100<146.438 229.562>
LayerCount: 3
Fore
SplineSet
42 188 m 4
 42 216 64 238 92 238 c 4
 120 238 142 216 142 188 c 4
 142 160 120 138 92 138 c 4
 64 138 42 160 42 188 c 4
EndSplineSet
Validated: 1
EndChar

StartChar: one
Encoding: 49 49 58
Width: 184
VWidth: 0
Flags: W
HStem: 138 100<50.4375 133.562>
VStem: 42 100<146.438 229.562>
LayerCount: 3
Fore
SplineSet
42 188 m 4
 42 216 64 238 92 238 c 4
 120 238 142 216 142 188 c 4
 142 160 120 138 92 138 c 4
 64 138 42 160 42 188 c 4
EndSplineSet
Validated: 1
EndChar

StartChar: two
Encoding: 50 50 59
Width: 184
VWidth: 0
Flags: W
HStem: 138 100<50.4375 133.562>
VStem: 42 100<146.438 229.562>
LayerCount: 3
Fore
SplineSet
42 188 m 4
 42 216 64 238 92 238 c 4
 120 238 142 216 142 188 c 4
 142 160 120 138 92 138 c 4
 64 138 42 160 42 188 c 4
EndSplineSet
Validated: 1
EndChar

StartChar: three
Encoding: 51 51 60
Width: 184
VWidth: 0
Flags: W
HStem: 138 100<50.4375 133.562>
VStem: 42 100<146.438 229.562>
LayerCount: 3
Fore
SplineSet
42 188 m 4
 42 216 64 238 92 238 c 4
 120 238 142 216 142 188 c 4
 142 160 120 138 92 138 c 4
 64 138 42 160 42 188 c 4
EndSplineSet
Validated: 1
EndChar

StartChar: four
Encoding: 52 52 61
Width: 184
VWidth: 0
Flags: W
HStem: 138 100<50.4375 133.562>
VStem: 42 100<146.438 229.562>
LayerCount: 3
Fore
SplineSet
42 188 m 4
 42 216 64 238 92 238 c 4
 120 238 142 216 142 188 c 4
 142 160 120 138 92 138 c 4
 64 138 42 160 42 188 c 4
EndSplineSet
Validated: 1
EndChar

StartChar: five
Encoding: 53 53 62
Width: 184
VWidth: 0
Flags: W
HStem: 138 100<50.4375 133.562>
VStem: 42 100<146.438 229.562>
LayerCount: 3
Fore
SplineSet
42 188 m 4
 42 216 64 238 92 238 c 4
 120 238 142 216 142 188 c 4
 142 160 120 138 92 138 c 4
 64 138 42 160 42 188 c 4
EndSplineSet
Validated: 1
EndChar

StartChar: six
Encoding: 54 54 63
Width: 184
VWidth: 0
Flags: W
HStem: 138 100<50.4375 133.562>
VStem: 42 100<146.438 229.562>
LayerCount: 3
Fore
SplineSet
42 188 m 4
 42 216 64 238 92 238 c 4
 120 238 142 216 142 188 c 4
 142 160 120 138 92 138 c 4
 64 138 42 160 42 188 c 4
EndSplineSet
Validated: 1
EndChar

StartChar: seven
Encoding: 55 55 64
Width: 184
VWidth: 0
Flags: W
HStem: 138 100<50.4375 133.562>
VStem: 42 100<146.438 229.562>
LayerCount: 3
Fore
SplineSet
42 188 m 4
 42 216 64 238 92 238 c 4
 120 238 142 216 142 188 c 4
 142 160 120 138 92 138 c 4
 64 138 42 160 42 188 c 4
EndSplineSet
Validated: 1
EndChar

StartChar: eight
Encoding: 56 56 65
Width: 184
VWidth: 0
Flags: W
HStem: 138 100<50.4375 133.562>
VStem: 42 100<146.438 229.562>
LayerCount: 3
Fore
SplineSet
42 188 m 4
 42 216 64 238 92 238 c 4
 120 238 142 216 142 188 c 4
 142 160 120 138 92 138 c 4
 64 138 42 160 42 188 c 4
EndSplineSet
Validated: 1
EndChar

StartChar: nine
Encoding: 57 57 66
Width: 184
VWidth: 0
Flags: W
HStem: 138 100<50.4375 133.562>
VStem: 42 100<146.438 229.562>
LayerCount: 3
Fore
SplineSet
42 188 m 4
 42 216 64 238 92 238 c 4
 120 238 142 216 142 188 c 4
 142 160 120 138 92 138 c 4
 64 138 42 160 42 188 c 4
EndSplineSet
Validated: 1
EndChar

StartChar: .notdef
Encoding: 65540 -1 67
Width: 425
VWidth: 0
Flags: W
HStem: -56 40<110.54 183.46> 74 45<133.935 156.897> 305 221<124.003 263.43> 606 66<134.732 265.049> 639 33<106.47 138.679>
VStem: 29 103<119.021 284.633> 29 95<119.021 305> 29 73<-8.69897 66.699 526 638.992> 192 204<-8.69897 66.699> 342 54<268.678 507.291>
LayerCount: 3
Fore
SplineSet
102 29 m 0xe180
 102 5 123 -16 147 -16 c 0
 171 -16 192 5 192 29 c 0
 192 53 171 74 147 74 c 0
 123 74 102 53 102 29 c 0xe180
124 526 m 2xea40
 178 526 l 2
 307 526 313 432 313 398 c 2
 313 390 l 2
 313 332 301 305 238 305 c 2
 144 305 l 2
 128 305 124 297 124 286 c 0xea40
 124 257 131 218 132 149 c 0
 132 148 134 119 146 119 c 0
 154 119 158.458831508 134.047146584 165 206 c 0
 167 228 175 223 275 237 c 0
 320 244 342 289 342 380 c 0
 342 445 328 492 312 526 c 0
 278 601 220 606 165 606 c 0xf440
 151 606 152 607 142 619 c 0
 134 628 127 639 119 639 c 0
 112 639 104 628 104 598 c 0
 104 547 111 526 124 526 c 2xea40
29 672 m 1xe940
 396 672 l 1
 396 -56 l 1
 29 -56 l 1
 29 672 l 1xe940
EndSplineSet
EndChar

StartChar: period
Encoding: 46 46 68
Width: 226
VWidth: 2
Flags: W
HStem: -10 106<70.078 155.186>
VStem: 60 106<0.0780334 86.2969>
LayerCount: 3
Fore
SplineSet
114 -10 m 0
 86 -10 60 10 60 42 c 0
 60 70 80 96 112 96 c 0
 140 96 166 77 166 45 c 0
 166 17 146 -10 114 -10 c 0
EndSplineSet
EndChar

StartChar: colon
Encoding: 58 58 69
Width: 226
VWidth: 2
Flags: W
HStem: -10 106<70.078 155.186> 270 106<70.078 155.186>
VStem: 60 106<0.0780334 86.2969 280.078 366.297>
LayerCount: 3
Fore
SplineSet
114 270 m 0
 86 270 60 290 60 322 c 0
 60 350 80 376 112 376 c 0
 140 376 166 357 166 325 c 0
 166 297 146 270 114 270 c 0
114 -10 m 0
 86 -10 60 10 60 42 c 0
 60 70 80 96 112 96 c 0
 140 96 166 77 166 45 c 0
 166 17 146 -10 114 -10 c 0
EndSplineSet
EndChar

StartChar: comma
Encoding: 44 44 70
Width: 300
VWidth: -15
Flags: W
HStem: -156 252<114 121>
VStem: 173 50<-77.06 0.376806>
LayerCount: 3
Fore
SplineSet
139 96 m 0
 187 96 223 51 223 -8 c 0
 223 -95 121 -156 115 -156 c 0
 99 -156 96 -147 96 -139 c 0
 96 -123 173 -92 173 -33 c 0
 173 23 94 -10 94 49 c 0
 94 72 114 96 139 96 c 0
EndSplineSet
EndChar

StartChar: slash
Encoding: 47 47 71
Width: 184
VWidth: 0
Flags: W
HStem: 138 100<50.4375 133.562>
VStem: 42 100<146.438 229.562>
LayerCount: 3
Fore
SplineSet
42 188 m 4
 42 216 64 238 92 238 c 4
 120 238 142 216 142 188 c 4
 142 160 120 138 92 138 c 4
 64 138 42 160 42 188 c 4
EndSplineSet
EndChar

StartChar: hyphen
Encoding: 45 45 72
Width: 316
VWidth: 2
Flags: W
HStem: 173 61<25.3918 290.72>
VStem: 25 266<173 234>
LayerCount: 3
Fore
SplineSet
41 234 m 2
 275 234 l 2
 290 234 291 216 291 203 c 0
 291 190 290 173 275 173 c 2
 41 173 l 2
 28 173 25 187 25 204 c 0
 25 222 27 234 41 234 c 2
EndSplineSet
EndChar

StartChar: semicolon
Encoding: 59 59 73
Width: 300
VWidth: 0
Flags: W
HStem: 270 106<105.078 190.186>
VStem: 95 106<280.078 366.297> 173 49<-77.2922 -0.435825>
LayerCount: 3
Fore
SplineSet
149 270 m 0xc0
 121 270 95 290 95 322 c 0
 95 350 115 376 147 376 c 0
 175 376 201 357 201 325 c 0
 201 297 181 270 149 270 c 0xc0
140 93 m 4
 187 93 222 49 222 -9 c 4
 222 -94 122 -153 116 -153 c 4
 100 -153 97 -145 97 -137 c 4
 97 -121 173 -91 173 -33 c 4xa0
 173 22 95 -10 95 48 c 4
 95 70 116 93 140 93 c 4
EndSplineSet
EndChar

StartChar: bullet
Encoding: 8226 8226 74
Width: 348
VWidth: 5
Flags: W
HStem: 139 191<115.07 233.709>
VStem: 79 189<174.052 293.752>
LayerCount: 3
Fore
SplineSet
172 139 m 0
 126 139 79 175 79 236 c 0
 79 283 117 330 178 330 c 0
 224 330 268 294 268 234 c 0
 268 187 233 139 172 139 c 0
EndSplineSet
EndChar

StartChar: asterisk
Encoding: 42 42 75
Width: 184
VWidth: 0
Flags: W
HStem: 138 100<50.4375 133.562>
VStem: 42 100<146.438 229.562>
LayerCount: 3
Fore
SplineSet
42 188 m 4
 42 216 64 238 92 238 c 4
 120 238 142 216 142 188 c 4
 142 160 120 138 92 138 c 4
 64 138 42 160 42 188 c 4
EndSplineSet
EndChar

StartChar: exclam
Encoding: 33 33 76
Width: 184
VWidth: 0
Flags: W
HStem: 138 100<50.4375 133.562>
VStem: 42 100<146.438 229.562>
LayerCount: 3
Fore
SplineSet
42 188 m 4
 42 216 64 238 92 238 c 4
 120 238 142 216 142 188 c 4
 142 160 120 138 92 138 c 4
 64 138 42 160 42 188 c 4
EndSplineSet
EndChar

StartChar: quotedbl
Encoding: 34 34 77
Width: 184
VWidth: 0
Flags: W
HStem: 138 100<50.4375 133.562>
VStem: 42 100<146.438 229.562>
LayerCount: 3
Fore
SplineSet
42 188 m 4
 42 216 64 238 92 238 c 4
 120 238 142 216 142 188 c 4
 142 160 120 138 92 138 c 4
 64 138 42 160 42 188 c 4
EndSplineSet
EndChar

StartChar: numbersign
Encoding: 35 35 78
Width: 184
VWidth: 0
Flags: W
HStem: 138 100<50.4375 133.562>
VStem: 42 100<146.438 229.562>
LayerCount: 3
Fore
SplineSet
42 188 m 4
 42 216 64 238 92 238 c 4
 120 238 142 216 142 188 c 4
 142 160 120 138 92 138 c 4
 64 138 42 160 42 188 c 4
EndSplineSet
EndChar

StartChar: dollar
Encoding: 36 36 79
Width: 184
VWidth: 0
Flags: W
HStem: 138 100<50.4375 133.562>
VStem: 42 100<146.438 229.562>
LayerCount: 3
Fore
SplineSet
42 188 m 4
 42 216 64 238 92 238 c 4
 120 238 142 216 142 188 c 4
 142 160 120 138 92 138 c 4
 64 138 42 160 42 188 c 4
EndSplineSet
EndChar

StartChar: percent
Encoding: 37 37 80
Width: 184
VWidth: 0
Flags: W
HStem: 138 100<50.4375 133.562>
VStem: 42 100<146.438 229.562>
LayerCount: 3
Fore
SplineSet
42 188 m 4
 42 216 64 238 92 238 c 4
 120 238 142 216 142 188 c 4
 142 160 120 138 92 138 c 4
 64 138 42 160 42 188 c 4
EndSplineSet
EndChar

StartChar: ampersand
Encoding: 38 38 81
Width: 184
VWidth: 0
Flags: W
HStem: 138 100<50.4375 133.562>
VStem: 42 100<146.438 229.562>
LayerCount: 3
Fore
SplineSet
42 188 m 4
 42 216 64 238 92 238 c 4
 120 238 142 216 142 188 c 4
 142 160 120 138 92 138 c 4
 64 138 42 160 42 188 c 4
EndSplineSet
EndChar

StartChar: quotesingle
Encoding: 39 39 82
Width: 184
VWidth: 0
Flags: W
HStem: 138 100<50.4375 133.562>
VStem: 42 100<146.438 229.562>
LayerCount: 3
Fore
SplineSet
42 188 m 4
 42 216 64 238 92 238 c 4
 120 238 142 216 142 188 c 4
 142 160 120 138 92 138 c 4
 64 138 42 160 42 188 c 4
EndSplineSet
EndChar

StartChar: parenleft
Encoding: 40 40 83
Width: 184
VWidth: 0
Flags: W
HStem: 138 100<50.4375 133.562>
VStem: 42 100<146.438 229.562>
LayerCount: 3
Fore
SplineSet
42 188 m 4
 42 216 64 238 92 238 c 4
 120 238 142 216 142 188 c 4
 142 160 120 138 92 138 c 4
 64 138 42 160 42 188 c 4
EndSplineSet
EndChar

StartChar: parenright
Encoding: 41 41 84
Width: 184
VWidth: 0
Flags: W
HStem: 138 100<50.4375 133.562>
VStem: 42 100<146.438 229.562>
LayerCount: 3
Fore
SplineSet
42 188 m 4
 42 216 64 238 92 238 c 4
 120 238 142 216 142 188 c 4
 142 160 120 138 92 138 c 4
 64 138 42 160 42 188 c 4
EndSplineSet
EndChar

StartChar: plus
Encoding: 43 43 85
Width: 184
VWidth: 0
Flags: W
HStem: 138 100<50.4375 133.562>
VStem: 42 100<146.438 229.562>
LayerCount: 3
Fore
SplineSet
42 188 m 4
 42 216 64 238 92 238 c 4
 120 238 142 216 142 188 c 4
 142 160 120 138 92 138 c 4
 64 138 42 160 42 188 c 4
EndSplineSet
EndChar

StartChar: less
Encoding: 60 60 86
Width: 184
VWidth: 0
Flags: W
HStem: 138 100<50.4375 133.562>
VStem: 42 100<146.438 229.562>
LayerCount: 3
Fore
SplineSet
42 188 m 4
 42 216 64 238 92 238 c 4
 120 238 142 216 142 188 c 4
 142 160 120 138 92 138 c 4
 64 138 42 160 42 188 c 4
EndSplineSet
EndChar

StartChar: equal
Encoding: 61 61 87
Width: 184
VWidth: 0
Flags: W
HStem: 138 100<50.4375 133.562>
VStem: 42 100<146.438 229.562>
LayerCount: 3
Fore
SplineSet
42 188 m 4
 42 216 64 238 92 238 c 4
 120 238 142 216 142 188 c 4
 142 160 120 138 92 138 c 4
 64 138 42 160 42 188 c 4
EndSplineSet
EndChar

StartChar: greater
Encoding: 62 62 88
Width: 184
VWidth: 0
Flags: W
HStem: 138 100<50.4375 133.562>
VStem: 42 100<146.438 229.562>
LayerCount: 3
Fore
SplineSet
42 188 m 4
 42 216 64 238 92 238 c 4
 120 238 142 216 142 188 c 4
 142 160 120 138 92 138 c 4
 64 138 42 160 42 188 c 4
EndSplineSet
EndChar

StartChar: question
Encoding: 63 63 89
Width: 184
VWidth: 0
Flags: W
HStem: 138 100<50.4375 133.562>
VStem: 42 100<146.438 229.562>
LayerCount: 3
Fore
SplineSet
42 188 m 4
 42 216 64 238 92 238 c 4
 120 238 142 216 142 188 c 4
 142 160 120 138 92 138 c 4
 64 138 42 160 42 188 c 4
EndSplineSet
EndChar

StartChar: at
Encoding: 64 64 90
Width: 184
VWidth: 0
Flags: W
HStem: 138 100<50.4375 133.562>
VStem: 42 100<146.438 229.562>
LayerCount: 3
Fore
SplineSet
42 188 m 4
 42 216 64 238 92 238 c 4
 120 238 142 216 142 188 c 4
 142 160 120 138 92 138 c 4
 64 138 42 160 42 188 c 4
EndSplineSet
EndChar

StartChar: OE
Encoding: 338 338 91
Width: 184
VWidth: 0
Flags: W
HStem: 138 100<50.4375 133.562>
VStem: 42 100<146.438 229.562>
LayerCount: 3
Fore
SplineSet
42 188 m 4
 42 216 64 238 92 238 c 4
 120 238 142 216 142 188 c 4
 142 160 120 138 92 138 c 4
 64 138 42 160 42 188 c 4
EndSplineSet
EndChar

StartChar: oe
Encoding: 339 339 92
Width: 184
VWidth: 0
Flags: W
HStem: 138 100<50.4375 133.562>
VStem: 42 100<146.438 229.562>
LayerCount: 3
Fore
SplineSet
42 188 m 4
 42 216 64 238 92 238 c 4
 120 238 142 216 142 188 c 4
 142 160 120 138 92 138 c 4
 64 138 42 160 42 188 c 4
EndSplineSet
EndChar

StartChar: ae
Encoding: 230 230 93
Width: 184
VWidth: 0
Flags: W
HStem: 138 100<50.4375 133.562>
VStem: 42 100<146.438 229.562>
LayerCount: 3
Fore
SplineSet
42 188 m 4
 42 216 64 238 92 238 c 4
 120 238 142 216 142 188 c 4
 142 160 120 138 92 138 c 4
 64 138 42 160 42 188 c 4
EndSplineSet
EndChar

StartChar: AE
Encoding: 198 198 94
Width: 184
VWidth: 0
Flags: W
HStem: 138 100<50.4375 133.562>
VStem: 42 100<146.438 229.562>
LayerCount: 3
Fore
SplineSet
42 188 m 4
 42 216 64 238 92 238 c 4
 120 238 142 216 142 188 c 4
 142 160 120 138 92 138 c 4
 64 138 42 160 42 188 c 4
EndSplineSet
EndChar

StartChar: bracketleft
Encoding: 91 91 95
Width: 184
VWidth: 0
Flags: W
HStem: 138 100<50.4375 133.562>
VStem: 42 100<146.438 229.562>
LayerCount: 3
Fore
SplineSet
42 188 m 4
 42 216 64 238 92 238 c 4
 120 238 142 216 142 188 c 4
 142 160 120 138 92 138 c 4
 64 138 42 160 42 188 c 4
EndSplineSet
EndChar

StartChar: backslash
Encoding: 92 92 96
Width: 184
VWidth: 0
Flags: W
HStem: 138 100<50.4375 133.562>
VStem: 42 100<146.438 229.562>
LayerCount: 3
Fore
SplineSet
42 188 m 4
 42 216 64 238 92 238 c 4
 120 238 142 216 142 188 c 4
 142 160 120 138 92 138 c 4
 64 138 42 160 42 188 c 4
EndSplineSet
EndChar

StartChar: bracketright
Encoding: 93 93 97
Width: 184
VWidth: 0
Flags: W
HStem: 138 100<50.4375 133.562>
VStem: 42 100<146.438 229.562>
LayerCount: 3
Fore
SplineSet
42 188 m 4
 42 216 64 238 92 238 c 4
 120 238 142 216 142 188 c 4
 142 160 120 138 92 138 c 4
 64 138 42 160 42 188 c 4
EndSplineSet
EndChar

StartChar: asciicircum
Encoding: 94 94 98
Width: 184
VWidth: 0
Flags: W
HStem: 138 100<50.4375 133.562>
VStem: 42 100<146.438 229.562>
LayerCount: 3
Fore
SplineSet
42 188 m 4
 42 216 64 238 92 238 c 4
 120 238 142 216 142 188 c 4
 142 160 120 138 92 138 c 4
 64 138 42 160 42 188 c 4
EndSplineSet
EndChar

StartChar: underscore
Encoding: 95 95 99
Width: 184
VWidth: 0
Flags: W
HStem: 138 100<50.4375 133.562>
VStem: 42 100<146.438 229.562>
LayerCount: 3
Fore
SplineSet
42 188 m 4
 42 216 64 238 92 238 c 4
 120 238 142 216 142 188 c 4
 142 160 120 138 92 138 c 4
 64 138 42 160 42 188 c 4
EndSplineSet
EndChar

StartChar: braceleft
Encoding: 123 123 100
Width: 184
VWidth: 0
Flags: W
HStem: 138 100<50.4375 133.562>
VStem: 42 100<146.438 229.562>
LayerCount: 3
Fore
SplineSet
42 188 m 4
 42 216 64 238 92 238 c 4
 120 238 142 216 142 188 c 4
 142 160 120 138 92 138 c 4
 64 138 42 160 42 188 c 4
EndSplineSet
EndChar

StartChar: bar
Encoding: 124 124 101
Width: 184
VWidth: 0
Flags: W
HStem: 138 100<50.4375 133.562>
VStem: 42 100<146.438 229.562>
LayerCount: 3
Fore
SplineSet
42 188 m 4
 42 216 64 238 92 238 c 4
 120 238 142 216 142 188 c 4
 142 160 120 138 92 138 c 4
 64 138 42 160 42 188 c 4
EndSplineSet
EndChar

StartChar: braceright
Encoding: 125 125 102
Width: 184
VWidth: 0
Flags: W
HStem: 138 100<50.4375 133.562>
VStem: 42 100<146.438 229.562>
LayerCount: 3
Fore
SplineSet
42 188 m 4
 42 216 64 238 92 238 c 4
 120 238 142 216 142 188 c 4
 142 160 120 138 92 138 c 4
 64 138 42 160 42 188 c 4
EndSplineSet
EndChar

StartChar: asciitilde
Encoding: 126 126 103
Width: 184
VWidth: 0
Flags: W
HStem: 138 100<50.4375 133.562>
VStem: 42 100<146.438 229.562>
LayerCount: 3
Fore
SplineSet
42 188 m 4
 42 216 64 238 92 238 c 4
 120 238 142 216 142 188 c 4
 142 160 120 138 92 138 c 4
 64 138 42 160 42 188 c 4
EndSplineSet
EndChar

StartChar: dagger
Encoding: 8224 8224 104
Width: 184
VWidth: 0
Flags: W
HStem: 138 100<50.4375 133.562>
VStem: 42 100<146.438 229.562>
LayerCount: 3
Fore
SplineSet
42 188 m 4
 42 216 64 238 92 238 c 4
 120 238 142 216 142 188 c 4
 142 160 120 138 92 138 c 4
 64 138 42 160 42 188 c 4
EndSplineSet
EndChar

StartChar: daggerdbl
Encoding: 8225 8225 105
Width: 184
VWidth: 0
Flags: W
HStem: 138 100<50.4375 133.562>
VStem: 42 100<146.438 229.562>
LayerCount: 3
Fore
SplineSet
42 188 m 4
 42 216 64 238 92 238 c 4
 120 238 142 216 142 188 c 4
 142 160 120 138 92 138 c 4
 64 138 42 160 42 188 c 4
EndSplineSet
EndChar

StartChar: figuredash
Encoding: 8210 8210 106
Width: 184
VWidth: 0
Flags: W
HStem: 138 100<50.4375 133.562>
VStem: 42 100<146.438 229.562>
LayerCount: 3
Fore
SplineSet
42 188 m 4
 42 216 64 238 92 238 c 4
 120 238 142 216 142 188 c 4
 142 160 120 138 92 138 c 4
 64 138 42 160 42 188 c 4
EndSplineSet
EndChar

StartChar: endash
Encoding: 8211 8211 107
Width: 184
VWidth: 0
Flags: W
HStem: 138 100<50.4375 133.562>
VStem: 42 100<146.438 229.562>
LayerCount: 3
Fore
SplineSet
42 188 m 4
 42 216 64 238 92 238 c 4
 120 238 142 216 142 188 c 4
 142 160 120 138 92 138 c 4
 64 138 42 160 42 188 c 4
EndSplineSet
EndChar

StartChar: emdash
Encoding: 8212 8212 108
Width: 184
VWidth: 0
Flags: W
HStem: 138 100<50.4375 133.562>
VStem: 42 100<146.438 229.562>
LayerCount: 3
Fore
SplineSet
42 188 m 4
 42 216 64 238 92 238 c 4
 120 238 142 216 142 188 c 4
 142 160 120 138 92 138 c 4
 64 138 42 160 42 188 c 4
EndSplineSet
EndChar

StartChar: afii00208
Encoding: 8213 8213 109
Width: 184
VWidth: 0
Flags: W
HStem: 138 100<50.4375 133.562>
VStem: 42 100<146.438 229.562>
LayerCount: 3
Fore
SplineSet
42 188 m 4
 42 216 64 238 92 238 c 4
 120 238 142 216 142 188 c 4
 142 160 120 138 92 138 c 4
 64 138 42 160 42 188 c 4
EndSplineSet
EndChar

StartChar: paragraph
Encoding: 182 182 110
Width: 184
VWidth: 0
Flags: W
HStem: 138 100<50.4375 133.562>
VStem: 42 100<146.438 229.562>
LayerCount: 3
Fore
SplineSet
42 188 m 4
 42 216 64 238 92 238 c 4
 120 238 142 216 142 188 c 4
 142 160 120 138 92 138 c 4
 64 138 42 160 42 188 c 4
EndSplineSet
EndChar

StartChar: section
Encoding: 167 167 111
Width: 184
VWidth: 0
Flags: W
HStem: 138 100<50.4375 133.562>
VStem: 42 100<146.438 229.562>
LayerCount: 3
Fore
SplineSet
42 188 m 0
 42 216 64 238 92 238 c 0
 120 238 142 216 142 188 c 0
 142 160 120 138 92 138 c 0
 64 138 42 160 42 188 c 0
EndSplineSet
EndChar

StartChar: quoteright
Encoding: 8217 8217 112
Width: 300
VWidth: 15
Flags: W
HStem: 387 236<119 126>
VStem: 169 48<452.71 529.611>
LayerCount: 3
Fore
SplineSet
98 576 m 0
 98 600 119 623 143 623 c 0
 190 623 217 579 217 521 c 0
 217 437 126 387 120 387 c 0
 104 387 101 395 101 403 c 0
 101 419 169 439 169 497 c 0
 169 553 98 516 98 576 c 0
EndSplineSet
EndChar

StartChar: quoteleft
Encoding: 8216 8216 113
Width: 300
VWidth: 15
Flags: W
HStem: 387 236<189 196>
VStem: 98 48<480.389 557.29>
LayerCount: 3
Fore
SplineSet
217 434 m 0
 217 410 196 387 172 387 c 0
 125 387 98 431 98 489 c 0
 98 573 189 623 195 623 c 0
 211 623 214 615 214 607 c 0
 214 591 146 571 146 513 c 0
 146 457 217 494 217 434 c 0
EndSplineSet
EndChar

StartChar: quotedblleft
Encoding: 8220 8220 114
Width: 475
VWidth: 15
Flags: W
HStem: 387 236<189 196 364 371>
VStem: 98 48<480.389 557.29> 273 48<480.389 557.29>
LayerCount: 3
Fore
SplineSet
217 434 m 0
 217 410 196 387 172 387 c 0
 125 387 98 431 98 489 c 0
 98 573 189 623 195 623 c 0
 211 623 214 615 214 607 c 0
 214 591 146 571 146 513 c 0
 146 457 217 494 217 434 c 0
392 434 m 0
 392 410 371 387 347 387 c 0
 300 387 273 431 273 489 c 0
 273 573 364 623 370 623 c 0
 386 623 389 615 389 607 c 0
 389 591 321 571 321 513 c 0
 321 457 392 494 392 434 c 0
EndSplineSet
EndChar

StartChar: quotedblright
Encoding: 8221 8221 115
Width: 475
VWidth: 15
Flags: W
HStem: 387 236<119 126 294 301>
VStem: 169 48<452.71 529.611> 344 48<452.71 529.611>
LayerCount: 3
Fore
SplineSet
273 576 m 0
 273 600 294 623 318 623 c 0
 365 623 392 579 392 521 c 0
 392 437 301 387 295 387 c 0
 279 387 276 395 276 403 c 0
 276 419 344 439 344 497 c 0
 344 553 273 516 273 576 c 0
98 576 m 0
 98 600 119 623 143 623 c 0
 190 623 217 579 217 521 c 0
 217 437 126 387 120 387 c 0
 104 387 101 395 101 403 c 0
 101 419 169 439 169 497 c 0
 169 553 98 516 98 576 c 0
EndSplineSet
EndChar
